%TF.GenerationSoftware,KiCad,Pcbnew,9.0.6*%
%TF.CreationDate,2025-12-23T21:48:00+05:30*%
%TF.ProjectId,CLASS D AMPLIFIER,434c4153-5320-4442-9041-4d504c494649,rev?*%
%TF.SameCoordinates,Original*%
%TF.FileFunction,Copper,L1,Top*%
%TF.FilePolarity,Positive*%
%FSLAX46Y46*%
G04 Gerber Fmt 4.6, Leading zero omitted, Abs format (unit mm)*
G04 Created by KiCad (PCBNEW 9.0.6) date 2025-12-23 21:48:00*
%MOMM*%
%LPD*%
G01*
G04 APERTURE LIST*
G04 Aperture macros list*
%AMRoundRect*
0 Rectangle with rounded corners*
0 $1 Rounding radius*
0 $2 $3 $4 $5 $6 $7 $8 $9 X,Y pos of 4 corners*
0 Add a 4 corners polygon primitive as box body*
4,1,4,$2,$3,$4,$5,$6,$7,$8,$9,$2,$3,0*
0 Add four circle primitives for the rounded corners*
1,1,$1+$1,$2,$3*
1,1,$1+$1,$4,$5*
1,1,$1+$1,$6,$7*
1,1,$1+$1,$8,$9*
0 Add four rect primitives between the rounded corners*
20,1,$1+$1,$2,$3,$4,$5,0*
20,1,$1+$1,$4,$5,$6,$7,0*
20,1,$1+$1,$6,$7,$8,$9,0*
20,1,$1+$1,$8,$9,$2,$3,0*%
G04 Aperture macros list end*
%TA.AperFunction,SMDPad,CuDef*%
%ADD10R,1.500000X2.400000*%
%TD*%
%TA.AperFunction,SMDPad,CuDef*%
%ADD11RoundRect,0.100000X0.130000X0.100000X-0.130000X0.100000X-0.130000X-0.100000X0.130000X-0.100000X0*%
%TD*%
%TA.AperFunction,SMDPad,CuDef*%
%ADD12RoundRect,0.150000X-0.825000X-0.150000X0.825000X-0.150000X0.825000X0.150000X-0.825000X0.150000X0*%
%TD*%
%TA.AperFunction,SMDPad,CuDef*%
%ADD13RoundRect,0.100000X0.100000X-0.130000X0.100000X0.130000X-0.100000X0.130000X-0.100000X-0.130000X0*%
%TD*%
%TA.AperFunction,ComponentPad*%
%ADD14R,1.905000X2.000000*%
%TD*%
%TA.AperFunction,ComponentPad*%
%ADD15O,1.905000X2.000000*%
%TD*%
%TA.AperFunction,ComponentPad*%
%ADD16R,2.000000X1.905000*%
%TD*%
%TA.AperFunction,ComponentPad*%
%ADD17O,2.000000X1.905000*%
%TD*%
%TA.AperFunction,ComponentPad*%
%ADD18RoundRect,0.250000X-1.250000X0.750000X-1.250000X-0.750000X1.250000X-0.750000X1.250000X0.750000X0*%
%TD*%
%TA.AperFunction,ComponentPad*%
%ADD19RoundRect,0.250001X-1.149999X-1.149999X1.149999X-1.149999X1.149999X1.149999X-1.149999X1.149999X0*%
%TD*%
%TA.AperFunction,ComponentPad*%
%ADD20C,2.800000*%
%TD*%
%TA.AperFunction,ComponentPad*%
%ADD21RoundRect,0.250000X0.550000X0.550000X-0.550000X0.550000X-0.550000X-0.550000X0.550000X-0.550000X0*%
%TD*%
%TA.AperFunction,ComponentPad*%
%ADD22C,1.600000*%
%TD*%
%TA.AperFunction,SMDPad,CuDef*%
%ADD23RoundRect,0.100000X-0.130000X-0.100000X0.130000X-0.100000X0.130000X0.100000X-0.130000X0.100000X0*%
%TD*%
%TA.AperFunction,ViaPad*%
%ADD24C,0.600000*%
%TD*%
%TA.AperFunction,Conductor*%
%ADD25C,0.200000*%
%TD*%
G04 APERTURE END LIST*
D10*
%TO.P,L1,2*%
%TO.N,Net-(C1-Pad1)*%
X114500000Y-71500000D03*
%TO.P,L1,1*%
%TO.N,Net-(Q1-E)*%
X109000000Y-71500000D03*
%TD*%
D11*
%TO.P,C3,2*%
%TO.N,Net-(D1-K)*%
X118180000Y-68000000D03*
%TO.P,C3,1*%
%TO.N,Net-(J1-Pin_2)*%
X118820000Y-68000000D03*
%TD*%
D12*
%TO.P,U1,1,GND*%
%TO.N,Net-(J1-Pin_2)*%
X119050000Y-70230000D03*
%TO.P,U1,2,TR*%
%TO.N,Net-(D1-K)*%
X119050000Y-71500000D03*
%TO.P,U1,3,Q*%
%TO.N,Net-(U1-Q)*%
X119050000Y-72770000D03*
%TO.P,U1,4,R*%
%TO.N,Net-(J1-Pin_1)*%
X119050000Y-74040000D03*
%TO.P,U1,5,CV*%
%TO.N,Net-(U1-CV)*%
X124000000Y-74040000D03*
%TO.P,U1,6,THR*%
%TO.N,Net-(D1-A)*%
X124000000Y-72770000D03*
%TO.P,U1,7,DIS*%
%TO.N,Net-(U1-DIS)*%
X124000000Y-71500000D03*
%TO.P,U1,8,VCC*%
%TO.N,Net-(J1-Pin_1)*%
X124000000Y-70230000D03*
%TD*%
D13*
%TO.P,R3,1*%
%TO.N,Net-(U1-DIS)*%
X126000000Y-71000000D03*
%TO.P,R3,2*%
%TO.N,Net-(J1-Pin_1)*%
X126000000Y-70360000D03*
%TD*%
%TO.P,R2,1*%
%TO.N,Net-(U1-Q)*%
X116500000Y-70000000D03*
%TO.P,R2,2*%
%TO.N,Net-(Q1-B)*%
X116500000Y-69360000D03*
%TD*%
%TO.P,R1,1*%
%TO.N,Net-(D1-A)*%
X126000000Y-72820000D03*
%TO.P,R1,2*%
%TO.N,Net-(U1-DIS)*%
X126000000Y-72180000D03*
%TD*%
D14*
%TO.P,Q2,1,B*%
%TO.N,Net-(Q1-B)*%
X103460000Y-80950000D03*
D15*
%TO.P,Q2,2,C*%
%TO.N,Net-(J1-Pin_2)*%
X106000000Y-80950000D03*
%TO.P,Q2,3,E*%
%TO.N,Net-(Q1-E)*%
X108540000Y-80950000D03*
%TD*%
D16*
%TO.P,Q1,1,B*%
%TO.N,Net-(Q1-B)*%
X103500000Y-67920000D03*
D17*
%TO.P,Q1,2,C*%
%TO.N,Net-(J1-Pin_1)*%
X103500000Y-70460000D03*
%TO.P,Q1,3,E*%
%TO.N,Net-(Q1-E)*%
X103500000Y-73000000D03*
%TD*%
D18*
%TO.P,J3,1,Pin_1*%
%TO.N,Net-(J3-Pin_1)*%
X123782500Y-81200000D03*
%TD*%
D19*
%TO.P,J2,1,Pin_1*%
%TO.N,Net-(J2-Pin_1)*%
X117500000Y-58117500D03*
D20*
%TO.P,J2,2,Pin_2*%
%TO.N,Net-(J1-Pin_2)*%
X122500000Y-58117500D03*
%TD*%
D19*
%TO.P,J1,1,Pin_1*%
%TO.N,Net-(J1-Pin_1)*%
X105500000Y-58117500D03*
D20*
%TO.P,J1,2,Pin_2*%
%TO.N,Net-(J1-Pin_2)*%
X110500000Y-58117500D03*
%TD*%
D21*
%TO.P,D1,1,K*%
%TO.N,Net-(D1-K)*%
X125310000Y-65000000D03*
D22*
%TO.P,D1,2,A*%
%TO.N,Net-(D1-A)*%
X117690000Y-65000000D03*
%TD*%
D13*
%TO.P,C4,1*%
%TO.N,Net-(J3-Pin_1)*%
X124500000Y-76475000D03*
%TO.P,C4,2*%
%TO.N,Net-(U1-CV)*%
X124500000Y-75835000D03*
%TD*%
D23*
%TO.P,C2,1*%
%TO.N,Net-(C1-Pad1)*%
X114835000Y-65500000D03*
%TO.P,C2,2*%
%TO.N,Net-(J2-Pin_1)*%
X115475000Y-65500000D03*
%TD*%
%TO.P,C1,1*%
%TO.N,Net-(C1-Pad1)*%
X112335000Y-65000000D03*
%TO.P,C1,2*%
%TO.N,Net-(J1-Pin_2)*%
X112975000Y-65000000D03*
%TD*%
D24*
%TO.N,Net-(J1-Pin_2)*%
X120000000Y-67500000D03*
X117500000Y-67000000D03*
%TO.N,Net-(Q1-B)*%
X104500000Y-66500000D03*
X116598999Y-68499802D03*
%TD*%
D25*
%TO.N,Net-(J1-Pin_2)*%
X118820000Y-68000000D02*
X119500000Y-68000000D01*
X119500000Y-68000000D02*
X120000000Y-67500000D01*
X115999000Y-67000000D02*
X115999000Y-66046050D01*
X115999000Y-67000000D02*
X117500000Y-67000000D01*
%TO.N,Net-(Q1-B)*%
X116500000Y-69360000D02*
X116500000Y-68598801D01*
X116500000Y-68598801D02*
X116598999Y-68499802D01*
X103500000Y-67920000D02*
X103500000Y-67500000D01*
X103500000Y-67500000D02*
X104500000Y-66500000D01*
%TO.N,Net-(D1-K)*%
X117001000Y-70425999D02*
X118180000Y-69246999D01*
X118180000Y-69246999D02*
X118180000Y-68000000D01*
X118180000Y-68000000D02*
X118180000Y-67800001D01*
X118180000Y-67800001D02*
X120980001Y-65000000D01*
X120980001Y-65000000D02*
X125310000Y-65000000D01*
%TO.N,Net-(J1-Pin_2)*%
X118820000Y-68000000D02*
X118820000Y-70000000D01*
X118820000Y-70000000D02*
X119050000Y-70230000D01*
%TO.N,Net-(J1-Pin_1)*%
X105500000Y-68460000D02*
X105500000Y-65000000D01*
X102607500Y-82652000D02*
X101798000Y-81842500D01*
X101798000Y-81842500D02*
X101798000Y-67067500D01*
X119050000Y-74040000D02*
X110438000Y-82652000D01*
X110438000Y-82652000D02*
X102607500Y-82652000D01*
X101798000Y-67067500D02*
X103865500Y-65000000D01*
X103865500Y-65000000D02*
X105500000Y-65000000D01*
%TO.N,Net-(D1-A)*%
X117690000Y-65000000D02*
X118791000Y-63899000D01*
X118791000Y-63899000D02*
X126095160Y-63899000D01*
X126095160Y-63899000D02*
X126501000Y-64304840D01*
X126501000Y-64304840D02*
X126501000Y-72518999D01*
X126199999Y-72820000D02*
X126000000Y-72820000D01*
X126501000Y-72518999D02*
X126199999Y-72820000D01*
%TO.N,Net-(J1-Pin_2)*%
X110500000Y-58117500D02*
X113117500Y-55500000D01*
X113117500Y-55500000D02*
X119882500Y-55500000D01*
X119882500Y-55500000D02*
X122500000Y-58117500D01*
X115999000Y-68501000D02*
X115999000Y-67000000D01*
X115999000Y-66046050D02*
X116589000Y-65456050D01*
X116589000Y-65456050D02*
X116589000Y-64028500D01*
X116589000Y-64028500D02*
X122500000Y-58117500D01*
%TO.N,Net-(J1-Pin_1)*%
X103500000Y-70460000D02*
X105500000Y-68460000D01*
X105500000Y-65000000D02*
X105500000Y-58117500D01*
%TO.N,Net-(Q1-B)*%
X103460000Y-80950000D02*
X102199000Y-79689000D01*
X102199000Y-79689000D02*
X102199000Y-69221000D01*
X102199000Y-69221000D02*
X103500000Y-67920000D01*
%TO.N,Net-(J1-Pin_2)*%
X106000000Y-80950000D02*
X107301000Y-82251000D01*
X109059217Y-82251000D02*
X115999000Y-75311217D01*
X107301000Y-82251000D02*
X109059217Y-82251000D01*
X115999000Y-75311217D02*
X115999000Y-68501000D01*
%TO.N,Net-(Q1-E)*%
X108540000Y-80950000D02*
X108540000Y-71960000D01*
X108540000Y-71960000D02*
X109000000Y-71500000D01*
X103500000Y-73000000D02*
X107500000Y-73000000D01*
X107500000Y-73000000D02*
X109000000Y-71500000D01*
%TO.N,Net-(C1-Pad1)*%
X112335000Y-65000000D02*
X112335000Y-65199999D01*
X112335000Y-65199999D02*
X112970001Y-65835000D01*
X112970001Y-65835000D02*
X114500000Y-65835000D01*
X114500000Y-71500000D02*
X114500000Y-65835000D01*
X114500000Y-65835000D02*
X114835000Y-65500000D01*
%TO.N,Net-(U1-Q)*%
X116500000Y-70000000D02*
X116500000Y-71194999D01*
X116500000Y-71194999D02*
X118075001Y-72770000D01*
X118075001Y-72770000D02*
X119050000Y-72770000D01*
%TO.N,Net-(D1-K)*%
X119050000Y-71500000D02*
X118075001Y-71500000D01*
X118075001Y-71500000D02*
X117001000Y-70425999D01*
%TO.N,Net-(J1-Pin_1)*%
X119050000Y-74040000D02*
X119843032Y-74040000D01*
X119843032Y-74040000D02*
X123653032Y-70230000D01*
X123653032Y-70230000D02*
X124000000Y-70230000D01*
%TO.N,Net-(J3-Pin_1)*%
X123782500Y-81200000D02*
X123782500Y-77192500D01*
X123782500Y-77192500D02*
X124500000Y-76475000D01*
%TO.N,Net-(U1-CV)*%
X124500000Y-75835000D02*
X124500000Y-74540000D01*
X124500000Y-74540000D02*
X124000000Y-74040000D01*
%TO.N,Net-(D1-A)*%
X124000000Y-72770000D02*
X125950000Y-72770000D01*
X125950000Y-72770000D02*
X126000000Y-72820000D01*
%TO.N,Net-(U1-DIS)*%
X126000000Y-72180000D02*
X126000000Y-71000000D01*
X124000000Y-71500000D02*
X125500000Y-71500000D01*
X125500000Y-71500000D02*
X126000000Y-71000000D01*
%TO.N,Net-(J1-Pin_1)*%
X124000000Y-70230000D02*
X125870000Y-70230000D01*
X125870000Y-70230000D02*
X126000000Y-70360000D01*
%TO.N,Net-(J2-Pin_1)*%
X115475000Y-65500000D02*
X115475000Y-60142500D01*
X115475000Y-60142500D02*
X117500000Y-58117500D01*
%TO.N,Net-(J1-Pin_2)*%
X110500000Y-58117500D02*
X112975000Y-60592500D01*
X112975000Y-60592500D02*
X112975000Y-65000000D01*
%TD*%
%TA.AperFunction,NonConductor*%
G36*
X127942539Y-50520185D02*
G01*
X127988294Y-50572989D01*
X127999500Y-50624500D01*
X127999500Y-85375500D01*
X127979815Y-85442539D01*
X127927011Y-85488294D01*
X127875500Y-85499500D01*
X100624500Y-85499500D01*
X100557461Y-85479815D01*
X100511706Y-85427011D01*
X100500500Y-85375500D01*
X100500500Y-81921554D01*
X101197498Y-81921554D01*
X101238423Y-82074285D01*
X101267358Y-82124400D01*
X101267359Y-82124404D01*
X101267360Y-82124404D01*
X101317479Y-82211214D01*
X101317481Y-82211217D01*
X101436349Y-82330085D01*
X101436355Y-82330090D01*
X102122639Y-83016374D01*
X102122649Y-83016385D01*
X102126979Y-83020715D01*
X102126980Y-83020716D01*
X102238784Y-83132520D01*
X102325595Y-83182639D01*
X102325597Y-83182641D01*
X102363651Y-83204611D01*
X102375715Y-83211577D01*
X102528443Y-83252501D01*
X102528446Y-83252501D01*
X102694153Y-83252501D01*
X102694169Y-83252500D01*
X110351331Y-83252500D01*
X110351347Y-83252501D01*
X110358943Y-83252501D01*
X110517054Y-83252501D01*
X110517057Y-83252501D01*
X110669785Y-83211577D01*
X110719904Y-83182639D01*
X110806716Y-83132520D01*
X110918520Y-83020716D01*
X110918520Y-83020714D01*
X110928728Y-83010507D01*
X110928729Y-83010504D01*
X119062416Y-74876819D01*
X119123739Y-74843334D01*
X119150097Y-74840500D01*
X119940686Y-74840500D01*
X119940694Y-74840500D01*
X119977569Y-74837598D01*
X119977571Y-74837597D01*
X119977573Y-74837597D01*
X120019191Y-74825505D01*
X120135398Y-74791744D01*
X120276865Y-74708081D01*
X120393081Y-74591865D01*
X120476744Y-74450398D01*
X120522598Y-74292569D01*
X120525500Y-74255694D01*
X120525500Y-74255675D01*
X120525595Y-74253266D01*
X120525690Y-74253269D01*
X120525691Y-74253267D01*
X120525761Y-74253272D01*
X120526912Y-74253317D01*
X120545185Y-74191089D01*
X120561814Y-74170452D01*
X122316434Y-72415831D01*
X122377755Y-72382348D01*
X122447447Y-72387332D01*
X122503380Y-72429204D01*
X122527797Y-72494668D01*
X122527731Y-72513241D01*
X122524500Y-72554295D01*
X122524500Y-72985701D01*
X122527401Y-73022567D01*
X122527402Y-73022573D01*
X122573254Y-73180393D01*
X122573255Y-73180396D01*
X122656917Y-73321862D01*
X122661702Y-73328031D01*
X122659256Y-73329927D01*
X122685857Y-73378642D01*
X122680873Y-73448334D01*
X122660069Y-73480703D01*
X122661702Y-73481969D01*
X122656917Y-73488137D01*
X122573255Y-73629603D01*
X122573254Y-73629606D01*
X122527402Y-73787426D01*
X122527401Y-73787432D01*
X122524500Y-73824298D01*
X122524500Y-74255701D01*
X122527401Y-74292567D01*
X122527402Y-74292573D01*
X122573254Y-74450393D01*
X122573255Y-74450396D01*
X122656917Y-74591862D01*
X122656923Y-74591870D01*
X122773129Y-74708076D01*
X122773133Y-74708079D01*
X122773135Y-74708081D01*
X122914602Y-74791744D01*
X122956224Y-74803836D01*
X123072426Y-74837597D01*
X123072429Y-74837597D01*
X123072431Y-74837598D01*
X123109306Y-74840500D01*
X123775500Y-74840500D01*
X123842539Y-74860185D01*
X123888294Y-74912989D01*
X123899500Y-74964500D01*
X123899500Y-75328742D01*
X123879815Y-75395781D01*
X123876073Y-75401103D01*
X123875465Y-75402156D01*
X123814956Y-75548237D01*
X123814955Y-75548239D01*
X123799500Y-75665638D01*
X123799500Y-76004363D01*
X123814955Y-76121763D01*
X123815263Y-76122912D01*
X123815395Y-76125106D01*
X123816016Y-76129821D01*
X123815682Y-76129864D01*
X123815808Y-76131951D01*
X123818197Y-76137160D01*
X123817173Y-76154584D01*
X123818252Y-76172454D01*
X123816557Y-76184371D01*
X123814956Y-76188238D01*
X123801800Y-76288165D01*
X123801692Y-76288928D01*
X123787505Y-76320121D01*
X123773599Y-76351557D01*
X123772828Y-76352394D01*
X123772767Y-76352530D01*
X123772611Y-76352630D01*
X123766608Y-76359155D01*
X123413786Y-76711978D01*
X123301981Y-76823782D01*
X123301980Y-76823784D01*
X123253450Y-76907841D01*
X123222923Y-76960715D01*
X123181999Y-77113443D01*
X123181999Y-77113445D01*
X123181999Y-77281546D01*
X123182000Y-77281559D01*
X123182000Y-79575500D01*
X123162315Y-79642539D01*
X123109511Y-79688294D01*
X123058000Y-79699500D01*
X122482498Y-79699500D01*
X122482480Y-79699501D01*
X122379703Y-79710000D01*
X122379700Y-79710001D01*
X122213168Y-79765185D01*
X122213163Y-79765187D01*
X122063842Y-79857289D01*
X121939789Y-79981342D01*
X121847687Y-80130663D01*
X121847685Y-80130668D01*
X121844274Y-80140962D01*
X121792501Y-80297203D01*
X121792501Y-80297204D01*
X121792500Y-80297204D01*
X121782000Y-80399983D01*
X121782000Y-82000001D01*
X121782001Y-82000018D01*
X121792500Y-82102796D01*
X121792501Y-82102799D01*
X121828428Y-82211217D01*
X121847686Y-82269334D01*
X121939788Y-82418656D01*
X122063844Y-82542712D01*
X122213166Y-82634814D01*
X122379703Y-82689999D01*
X122482491Y-82700500D01*
X125082508Y-82700499D01*
X125185297Y-82689999D01*
X125351834Y-82634814D01*
X125501156Y-82542712D01*
X125625212Y-82418656D01*
X125717314Y-82269334D01*
X125772499Y-82102797D01*
X125783000Y-82000009D01*
X125782999Y-80399992D01*
X125772499Y-80297203D01*
X125717314Y-80130666D01*
X125625212Y-79981344D01*
X125501156Y-79857288D01*
X125351834Y-79765186D01*
X125185297Y-79710001D01*
X125185295Y-79710000D01*
X125082516Y-79699500D01*
X125082509Y-79699500D01*
X124507000Y-79699500D01*
X124439961Y-79679815D01*
X124394206Y-79627011D01*
X124383000Y-79575500D01*
X124383000Y-77492596D01*
X124391644Y-77463155D01*
X124398168Y-77433169D01*
X124401922Y-77428153D01*
X124402685Y-77425557D01*
X124419310Y-77404924D01*
X124585846Y-77238387D01*
X124647166Y-77204905D01*
X124657341Y-77203132D01*
X124678373Y-77200363D01*
X124756762Y-77190044D01*
X124902841Y-77129536D01*
X125028282Y-77033282D01*
X125124536Y-76907841D01*
X125185044Y-76761762D01*
X125200500Y-76644361D01*
X125200499Y-76305640D01*
X125200499Y-76305639D01*
X125200499Y-76305636D01*
X125185045Y-76188244D01*
X125185044Y-76188242D01*
X125185044Y-76188238D01*
X125185042Y-76188233D01*
X125184738Y-76187096D01*
X125184737Y-76185906D01*
X125183984Y-76180179D01*
X125184737Y-76180079D01*
X125184737Y-76129919D01*
X125183983Y-76129820D01*
X125184737Y-76124092D01*
X125184737Y-76122905D01*
X125185040Y-76121771D01*
X125185044Y-76121762D01*
X125200500Y-76004361D01*
X125200499Y-75665640D01*
X125200499Y-75665638D01*
X125200499Y-75665636D01*
X125185046Y-75548246D01*
X125185044Y-75548239D01*
X125185044Y-75548238D01*
X125124536Y-75402159D01*
X125124534Y-75402156D01*
X125120472Y-75395119D01*
X125122213Y-75394113D01*
X125100930Y-75339057D01*
X125100500Y-75328742D01*
X125100500Y-74853540D01*
X125120185Y-74786501D01*
X125161379Y-74746808D01*
X125226865Y-74708081D01*
X125343081Y-74591865D01*
X125426744Y-74450398D01*
X125472598Y-74292569D01*
X125475500Y-74255694D01*
X125475500Y-73824306D01*
X125472598Y-73787431D01*
X125472597Y-73787426D01*
X125424568Y-73622110D01*
X125427578Y-73621235D01*
X125420791Y-73566299D01*
X125451074Y-73503333D01*
X125510592Y-73466735D01*
X125580448Y-73468124D01*
X125590607Y-73471822D01*
X125597158Y-73474535D01*
X125597159Y-73474536D01*
X125743238Y-73535044D01*
X125860639Y-73550500D01*
X126139360Y-73550499D01*
X126139363Y-73550499D01*
X126256753Y-73535046D01*
X126256757Y-73535044D01*
X126256762Y-73535044D01*
X126402841Y-73474536D01*
X126528282Y-73378282D01*
X126624536Y-73252841D01*
X126624538Y-73252833D01*
X126627490Y-73247723D01*
X126647197Y-73222036D01*
X126680519Y-73188716D01*
X126680519Y-73188714D01*
X126981520Y-72887715D01*
X127060577Y-72750783D01*
X127101501Y-72598056D01*
X127101501Y-72439941D01*
X127101501Y-72432346D01*
X127101500Y-72432328D01*
X127101500Y-64225785D01*
X127101500Y-64225783D01*
X127060577Y-64073056D01*
X127060573Y-64073049D01*
X126981524Y-63936130D01*
X126981521Y-63936126D01*
X126981520Y-63936124D01*
X126869716Y-63824320D01*
X126869715Y-63824319D01*
X126865385Y-63819989D01*
X126865374Y-63819979D01*
X126582750Y-63537355D01*
X126582748Y-63537352D01*
X126463877Y-63418481D01*
X126463876Y-63418480D01*
X126377064Y-63368360D01*
X126377064Y-63368359D01*
X126377060Y-63368358D01*
X126326945Y-63339423D01*
X126174217Y-63298499D01*
X126016103Y-63298499D01*
X126008507Y-63298499D01*
X126008491Y-63298500D01*
X118870057Y-63298500D01*
X118711943Y-63298500D01*
X118559215Y-63339423D01*
X118559214Y-63339423D01*
X118559212Y-63339424D01*
X118559209Y-63339425D01*
X118509096Y-63368359D01*
X118509095Y-63368360D01*
X118465721Y-63393402D01*
X118422285Y-63418479D01*
X118422282Y-63418481D01*
X118310478Y-63530286D01*
X118134842Y-63705921D01*
X118073519Y-63739406D01*
X118008845Y-63736172D01*
X117991255Y-63730457D01*
X117933579Y-63691020D01*
X117906380Y-63626662D01*
X117918293Y-63557816D01*
X117941887Y-63524847D01*
X121587334Y-59879399D01*
X121648655Y-59845916D01*
X121718347Y-59850900D01*
X121722455Y-59852516D01*
X121887793Y-59921002D01*
X122128435Y-59985482D01*
X122375435Y-60018000D01*
X122375442Y-60018000D01*
X122624558Y-60018000D01*
X122624565Y-60018000D01*
X122871565Y-59985482D01*
X123112207Y-59921002D01*
X123342373Y-59825664D01*
X123558127Y-59701099D01*
X123755776Y-59549438D01*
X123931938Y-59373276D01*
X124083599Y-59175627D01*
X124208164Y-58959873D01*
X124303502Y-58729707D01*
X124367982Y-58489065D01*
X124400500Y-58242065D01*
X124400500Y-57992935D01*
X124367982Y-57745935D01*
X124303502Y-57505293D01*
X124235021Y-57339966D01*
X124208169Y-57275138D01*
X124208162Y-57275123D01*
X124083599Y-57059373D01*
X123931939Y-56861725D01*
X123931933Y-56861718D01*
X123755781Y-56685566D01*
X123755774Y-56685560D01*
X123558126Y-56533900D01*
X123342376Y-56409337D01*
X123342361Y-56409330D01*
X123112207Y-56313998D01*
X122871561Y-56249517D01*
X122624575Y-56217001D01*
X122624570Y-56217000D01*
X122624565Y-56217000D01*
X122375435Y-56217000D01*
X122375429Y-56217000D01*
X122375424Y-56217001D01*
X122128438Y-56249517D01*
X121887792Y-56313998D01*
X121722466Y-56382478D01*
X121652997Y-56389947D01*
X121590518Y-56358671D01*
X121587333Y-56355598D01*
X120370090Y-55138355D01*
X120370088Y-55138352D01*
X120251217Y-55019481D01*
X120251216Y-55019480D01*
X120164404Y-54969360D01*
X120164404Y-54969359D01*
X120164400Y-54969358D01*
X120114285Y-54940423D01*
X119961557Y-54899499D01*
X119803443Y-54899499D01*
X119795847Y-54899499D01*
X119795831Y-54899500D01*
X113204169Y-54899500D01*
X113204153Y-54899499D01*
X113196557Y-54899499D01*
X113038443Y-54899499D01*
X112931087Y-54928265D01*
X112885710Y-54940424D01*
X112885709Y-54940425D01*
X112835596Y-54969359D01*
X112835595Y-54969360D01*
X112792189Y-54994420D01*
X112748785Y-55019479D01*
X112748782Y-55019481D01*
X112636978Y-55131286D01*
X111412665Y-56355598D01*
X111351342Y-56389083D01*
X111281650Y-56384099D01*
X111277553Y-56382486D01*
X111112207Y-56313998D01*
X111112205Y-56313997D01*
X111112204Y-56313997D01*
X110871561Y-56249517D01*
X110624575Y-56217001D01*
X110624570Y-56217000D01*
X110624565Y-56217000D01*
X110375435Y-56217000D01*
X110375429Y-56217000D01*
X110375424Y-56217001D01*
X110128438Y-56249517D01*
X109887792Y-56313998D01*
X109657638Y-56409330D01*
X109657623Y-56409337D01*
X109441873Y-56533900D01*
X109244225Y-56685560D01*
X109244218Y-56685566D01*
X109068066Y-56861718D01*
X109068060Y-56861725D01*
X108916400Y-57059373D01*
X108791837Y-57275123D01*
X108791830Y-57275138D01*
X108696498Y-57505292D01*
X108632017Y-57745938D01*
X108599501Y-57992924D01*
X108599500Y-57992941D01*
X108599500Y-58242058D01*
X108599501Y-58242075D01*
X108632017Y-58489061D01*
X108696498Y-58729707D01*
X108791830Y-58959861D01*
X108791837Y-58959876D01*
X108916400Y-59175626D01*
X109068060Y-59373274D01*
X109068066Y-59373281D01*
X109244218Y-59549433D01*
X109244225Y-59549439D01*
X109441873Y-59701099D01*
X109657623Y-59825662D01*
X109657638Y-59825669D01*
X109756825Y-59866753D01*
X109887793Y-59921002D01*
X110128435Y-59985482D01*
X110375435Y-60018000D01*
X110375442Y-60018000D01*
X110624558Y-60018000D01*
X110624565Y-60018000D01*
X110871565Y-59985482D01*
X111112207Y-59921002D01*
X111277535Y-59852520D01*
X111347001Y-59845052D01*
X111409481Y-59876327D01*
X111412638Y-59879374D01*
X111888181Y-60354916D01*
X112338181Y-60804916D01*
X112371666Y-60866239D01*
X112374500Y-60892597D01*
X112374500Y-64175500D01*
X112354815Y-64242539D01*
X112302011Y-64288294D01*
X112250501Y-64299500D01*
X112165637Y-64299500D01*
X112048246Y-64314953D01*
X112048237Y-64314956D01*
X111902160Y-64375463D01*
X111776718Y-64471718D01*
X111680463Y-64597160D01*
X111619956Y-64743237D01*
X111619955Y-64743239D01*
X111604500Y-64860638D01*
X111604500Y-65139363D01*
X111619953Y-65256753D01*
X111619956Y-65256762D01*
X111680464Y-65402841D01*
X111776718Y-65528282D01*
X111902159Y-65624536D01*
X111902162Y-65624537D01*
X111907283Y-65627494D01*
X111932966Y-65647201D01*
X111966284Y-65680519D01*
X111966285Y-65680519D01*
X111973353Y-65687587D01*
X112485140Y-66199374D01*
X112485150Y-66199385D01*
X112489480Y-66203715D01*
X112489481Y-66203716D01*
X112601285Y-66315520D01*
X112601287Y-66315521D01*
X112660141Y-66349500D01*
X112660140Y-66349500D01*
X112660143Y-66349501D01*
X112738210Y-66394574D01*
X112738211Y-66394575D01*
X112738213Y-66394575D01*
X112738216Y-66394577D01*
X112890944Y-66435501D01*
X112890947Y-66435501D01*
X113056654Y-66435501D01*
X113056670Y-66435500D01*
X113775500Y-66435500D01*
X113842539Y-66455185D01*
X113888294Y-66507989D01*
X113899500Y-66559500D01*
X113899500Y-69675500D01*
X113879815Y-69742539D01*
X113827011Y-69788294D01*
X113775502Y-69799500D01*
X113702130Y-69799500D01*
X113702123Y-69799501D01*
X113642516Y-69805908D01*
X113507671Y-69856202D01*
X113507664Y-69856206D01*
X113392455Y-69942452D01*
X113392452Y-69942455D01*
X113306206Y-70057664D01*
X113306202Y-70057671D01*
X113255908Y-70192517D01*
X113249501Y-70252116D01*
X113249501Y-70252123D01*
X113249500Y-70252135D01*
X113249500Y-72747870D01*
X113249501Y-72747876D01*
X113255908Y-72807483D01*
X113306202Y-72942328D01*
X113306206Y-72942335D01*
X113392452Y-73057544D01*
X113392455Y-73057547D01*
X113507664Y-73143793D01*
X113507671Y-73143797D01*
X113642517Y-73194091D01*
X113642516Y-73194091D01*
X113649444Y-73194835D01*
X113702127Y-73200500D01*
X115274500Y-73200499D01*
X115341539Y-73220184D01*
X115387294Y-73272987D01*
X115398500Y-73324499D01*
X115398500Y-75011119D01*
X115378815Y-75078158D01*
X115362181Y-75098800D01*
X110084761Y-80376220D01*
X110023438Y-80409705D01*
X109953746Y-80404721D01*
X109897813Y-80362849D01*
X109886595Y-80344834D01*
X109862324Y-80297200D01*
X109782717Y-80140962D01*
X109648286Y-79955934D01*
X109486566Y-79794214D01*
X109301538Y-79659783D01*
X109267695Y-79642539D01*
X109208205Y-79612227D01*
X109157409Y-79564252D01*
X109140500Y-79501742D01*
X109140500Y-73324499D01*
X109160185Y-73257460D01*
X109212989Y-73211705D01*
X109264500Y-73200499D01*
X109797871Y-73200499D01*
X109797872Y-73200499D01*
X109857483Y-73194091D01*
X109992331Y-73143796D01*
X110107546Y-73057546D01*
X110193796Y-72942331D01*
X110244091Y-72807483D01*
X110250500Y-72747873D01*
X110250499Y-70252128D01*
X110244091Y-70192517D01*
X110216953Y-70119757D01*
X110193797Y-70057671D01*
X110193793Y-70057664D01*
X110107547Y-69942455D01*
X110107544Y-69942452D01*
X109992335Y-69856206D01*
X109992328Y-69856202D01*
X109857482Y-69805908D01*
X109857483Y-69805908D01*
X109797883Y-69799501D01*
X109797881Y-69799500D01*
X109797873Y-69799500D01*
X109797864Y-69799500D01*
X108202129Y-69799500D01*
X108202123Y-69799501D01*
X108142516Y-69805908D01*
X108007671Y-69856202D01*
X108007664Y-69856206D01*
X107892455Y-69942452D01*
X107892452Y-69942455D01*
X107806206Y-70057664D01*
X107806202Y-70057671D01*
X107755908Y-70192517D01*
X107749501Y-70252116D01*
X107749501Y-70252123D01*
X107749500Y-70252135D01*
X107749500Y-71849902D01*
X107729815Y-71916941D01*
X107713181Y-71937583D01*
X107287584Y-72363181D01*
X107226261Y-72396666D01*
X107199903Y-72399500D01*
X104948258Y-72399500D01*
X104881219Y-72379815D01*
X104837773Y-72331795D01*
X104790216Y-72238461D01*
X104655786Y-72053434D01*
X104494066Y-71891714D01*
X104409559Y-71830316D01*
X104366896Y-71774988D01*
X104360917Y-71705375D01*
X104393523Y-71643580D01*
X104409556Y-71629685D01*
X104494066Y-71568286D01*
X104655786Y-71406566D01*
X104790217Y-71221538D01*
X104894048Y-71017758D01*
X104948145Y-70851264D01*
X104964721Y-70800249D01*
X104964721Y-70800248D01*
X104964722Y-70800245D01*
X105000500Y-70574354D01*
X105000500Y-70345646D01*
X104964722Y-70119755D01*
X104920702Y-69984278D01*
X104918708Y-69914438D01*
X104950951Y-69858282D01*
X105858506Y-68950728D01*
X105858511Y-68950724D01*
X105868714Y-68940520D01*
X105868716Y-68940520D01*
X105980520Y-68828716D01*
X106054545Y-68700500D01*
X106059577Y-68691785D01*
X106100500Y-68539057D01*
X106100500Y-68380943D01*
X106100500Y-64920943D01*
X106100500Y-64920942D01*
X106100500Y-60142000D01*
X106120185Y-60074961D01*
X106172989Y-60029206D01*
X106224500Y-60018000D01*
X106700003Y-60018000D01*
X106700008Y-60018000D01*
X106802797Y-60007499D01*
X106969334Y-59952314D01*
X107118655Y-59860211D01*
X107242711Y-59736155D01*
X107334814Y-59586834D01*
X107389999Y-59420297D01*
X107400500Y-59317508D01*
X107400500Y-56917492D01*
X107389999Y-56814703D01*
X107334814Y-56648166D01*
X107264333Y-56533900D01*
X107242713Y-56498848D01*
X107242710Y-56498844D01*
X107118655Y-56374789D01*
X107118651Y-56374786D01*
X106969337Y-56282687D01*
X106969335Y-56282686D01*
X106869237Y-56249517D01*
X106802797Y-56227501D01*
X106802795Y-56227500D01*
X106700015Y-56217000D01*
X106700008Y-56217000D01*
X104299992Y-56217000D01*
X104299984Y-56217000D01*
X104197204Y-56227500D01*
X104197203Y-56227501D01*
X104030664Y-56282686D01*
X104030662Y-56282687D01*
X103881348Y-56374786D01*
X103881344Y-56374789D01*
X103757289Y-56498844D01*
X103757286Y-56498848D01*
X103665187Y-56648162D01*
X103665186Y-56648164D01*
X103610001Y-56814703D01*
X103610000Y-56814704D01*
X103599500Y-56917484D01*
X103599500Y-59317515D01*
X103610000Y-59420295D01*
X103610001Y-59420296D01*
X103665186Y-59586835D01*
X103665187Y-59586837D01*
X103757286Y-59736151D01*
X103757289Y-59736155D01*
X103881345Y-59860211D01*
X103881347Y-59860212D01*
X103881348Y-59860213D01*
X104030662Y-59952312D01*
X104030664Y-59952313D01*
X104030666Y-59952314D01*
X104197203Y-60007499D01*
X104299992Y-60018000D01*
X104775500Y-60018000D01*
X104842539Y-60037685D01*
X104888294Y-60090489D01*
X104899500Y-60142000D01*
X104899500Y-64275500D01*
X104879815Y-64342539D01*
X104827011Y-64388294D01*
X104775500Y-64399500D01*
X103952170Y-64399500D01*
X103952154Y-64399499D01*
X103944558Y-64399499D01*
X103786443Y-64399499D01*
X103710079Y-64419961D01*
X103633714Y-64440423D01*
X103633709Y-64440426D01*
X103496790Y-64519475D01*
X103496782Y-64519481D01*
X101317481Y-66698782D01*
X101317477Y-66698787D01*
X101306363Y-66718039D01*
X101302247Y-66725169D01*
X101238423Y-66835715D01*
X101197499Y-66988443D01*
X101197499Y-67146557D01*
X101197499Y-67146559D01*
X101197500Y-67156553D01*
X101197500Y-81755830D01*
X101197499Y-81755848D01*
X101197499Y-81921554D01*
X101197498Y-81921554D01*
X100500500Y-81921554D01*
X100500500Y-50624500D01*
X100520185Y-50557461D01*
X100572989Y-50511706D01*
X100624500Y-50500500D01*
X127875500Y-50500500D01*
X127942539Y-50520185D01*
G37*
%TD.AperFunction*%
%TA.AperFunction,NonConductor*%
G36*
X119649442Y-56120185D02*
G01*
X119670084Y-56136819D01*
X120738098Y-57204833D01*
X120771583Y-57266156D01*
X120766599Y-57335848D01*
X120764978Y-57339966D01*
X120696498Y-57505292D01*
X120632017Y-57745938D01*
X120599501Y-57992924D01*
X120599500Y-57992941D01*
X120599500Y-58242058D01*
X120599501Y-58242075D01*
X120632017Y-58489061D01*
X120696497Y-58729704D01*
X120764978Y-58895031D01*
X120772447Y-58964501D01*
X120741172Y-59026980D01*
X120738098Y-59030165D01*
X116287181Y-63481083D01*
X116225858Y-63514568D01*
X116156166Y-63509584D01*
X116100233Y-63467712D01*
X116075816Y-63402248D01*
X116075500Y-63393402D01*
X116075500Y-60442597D01*
X116095185Y-60375558D01*
X116111819Y-60354916D01*
X116412416Y-60054319D01*
X116473739Y-60020834D01*
X116500097Y-60018000D01*
X118700003Y-60018000D01*
X118700008Y-60018000D01*
X118802797Y-60007499D01*
X118969334Y-59952314D01*
X119118655Y-59860211D01*
X119242711Y-59736155D01*
X119334814Y-59586834D01*
X119389999Y-59420297D01*
X119400500Y-59317508D01*
X119400500Y-56917492D01*
X119389999Y-56814703D01*
X119334814Y-56648166D01*
X119264333Y-56533900D01*
X119242713Y-56498848D01*
X119242710Y-56498844D01*
X119118655Y-56374789D01*
X119118651Y-56374786D01*
X119046104Y-56330038D01*
X118999379Y-56278090D01*
X118988158Y-56209127D01*
X119016001Y-56145046D01*
X119074070Y-56106190D01*
X119111201Y-56100500D01*
X119582403Y-56100500D01*
X119649442Y-56120185D01*
G37*
%TD.AperFunction*%
%TA.AperFunction,NonConductor*%
G36*
X115955838Y-56120185D02*
G01*
X116001593Y-56172989D01*
X116011537Y-56242147D01*
X115982512Y-56305703D01*
X115953896Y-56330038D01*
X115881348Y-56374786D01*
X115881344Y-56374789D01*
X115757289Y-56498844D01*
X115757286Y-56498848D01*
X115665187Y-56648162D01*
X115665186Y-56648164D01*
X115610001Y-56814703D01*
X115610000Y-56814704D01*
X115599500Y-56917484D01*
X115599500Y-59117402D01*
X115579815Y-59184441D01*
X115563181Y-59205083D01*
X114994481Y-59773782D01*
X114994477Y-59773787D01*
X114944582Y-59860208D01*
X114944583Y-59860209D01*
X114915422Y-59910716D01*
X114904276Y-59952314D01*
X114874499Y-60063443D01*
X114874499Y-60063445D01*
X114874499Y-60231546D01*
X114874500Y-60231559D01*
X114874500Y-64675500D01*
X114854815Y-64742539D01*
X114802011Y-64788294D01*
X114750501Y-64799500D01*
X114665637Y-64799500D01*
X114548246Y-64814953D01*
X114548237Y-64814956D01*
X114402160Y-64875463D01*
X114276716Y-64971719D01*
X114180462Y-65097161D01*
X114155282Y-65157953D01*
X114142738Y-65173518D01*
X114134434Y-65191703D01*
X114121263Y-65200167D01*
X114111441Y-65212356D01*
X114092473Y-65218668D01*
X114075656Y-65229477D01*
X114048095Y-65233439D01*
X114045147Y-65234421D01*
X114040721Y-65234500D01*
X113829500Y-65234500D01*
X113762461Y-65214815D01*
X113716706Y-65162011D01*
X113705500Y-65110500D01*
X113705499Y-64860636D01*
X113690046Y-64743246D01*
X113690044Y-64743239D01*
X113690044Y-64743238D01*
X113629536Y-64597159D01*
X113629535Y-64597158D01*
X113629535Y-64597157D01*
X113601124Y-64560131D01*
X113575930Y-64494962D01*
X113575500Y-64484645D01*
X113575500Y-60681560D01*
X113575501Y-60681547D01*
X113575501Y-60513444D01*
X113556517Y-60442597D01*
X113534577Y-60360716D01*
X113460009Y-60231559D01*
X113455524Y-60223790D01*
X113455518Y-60223782D01*
X112261901Y-59030165D01*
X112228416Y-58968842D01*
X112233400Y-58899150D01*
X112234993Y-58895102D01*
X112303502Y-58729707D01*
X112367982Y-58489065D01*
X112400500Y-58242065D01*
X112400500Y-57992935D01*
X112367982Y-57745935D01*
X112303502Y-57505293D01*
X112235020Y-57339965D01*
X112227552Y-57270496D01*
X112258827Y-57208017D01*
X112261871Y-57204862D01*
X113329916Y-56136819D01*
X113391239Y-56103334D01*
X113417597Y-56100500D01*
X115888799Y-56100500D01*
X115955838Y-56120185D01*
G37*
%TD.AperFunction*%
%TA.AperFunction,NonConductor*%
G36*
X120398942Y-64519185D02*
G01*
X120444697Y-64571989D01*
X120454641Y-64641147D01*
X120425616Y-64704703D01*
X120419584Y-64711181D01*
X118428647Y-66702117D01*
X118367324Y-66735602D01*
X118297632Y-66730618D01*
X118241699Y-66688746D01*
X118226405Y-66661889D01*
X118209395Y-66620823D01*
X118209390Y-66620814D01*
X118121789Y-66489711D01*
X118121786Y-66489707D01*
X118066685Y-66434606D01*
X118033200Y-66373283D01*
X118038184Y-66303591D01*
X118080056Y-66247658D01*
X118116044Y-66228995D01*
X118189219Y-66205220D01*
X118371610Y-66112287D01*
X118500482Y-66018657D01*
X118537213Y-65991971D01*
X118537215Y-65991968D01*
X118537219Y-65991966D01*
X118681966Y-65847219D01*
X118681968Y-65847215D01*
X118681971Y-65847213D01*
X118734732Y-65774590D01*
X118802287Y-65681610D01*
X118895220Y-65499219D01*
X118958477Y-65304534D01*
X118990500Y-65102352D01*
X118990500Y-64897648D01*
X118958477Y-64695466D01*
X118953827Y-64681157D01*
X118953392Y-64665943D01*
X118948074Y-64651682D01*
X118952414Y-64631729D01*
X118951831Y-64611318D01*
X118959920Y-64597229D01*
X118962927Y-64583409D01*
X118984079Y-64555155D01*
X119003419Y-64535816D01*
X119064743Y-64502333D01*
X119091098Y-64499500D01*
X120331903Y-64499500D01*
X120398942Y-64519185D01*
G37*
%TD.AperFunction*%
%TA.AperFunction,NonConductor*%
G36*
X115290687Y-66198531D02*
G01*
X115354583Y-66226798D01*
X115393053Y-66285123D01*
X115398500Y-66321470D01*
X115398500Y-69675500D01*
X115378815Y-69742539D01*
X115326011Y-69788294D01*
X115274500Y-69799500D01*
X115224500Y-69799500D01*
X115157461Y-69779815D01*
X115111706Y-69727011D01*
X115100500Y-69675500D01*
X115100500Y-66314887D01*
X115120185Y-66247848D01*
X115172989Y-66202093D01*
X115240682Y-66191948D01*
X115290687Y-66198531D01*
G37*
%TD.AperFunction*%
%TA.AperFunction,NonConductor*%
G36*
X123927460Y-65609198D02*
G01*
X123957622Y-65615864D01*
X123960694Y-65618957D01*
X123964876Y-65620185D01*
X123985094Y-65643518D01*
X124006864Y-65665432D01*
X124008929Y-65671024D01*
X124010631Y-65672989D01*
X124019089Y-65698541D01*
X124019999Y-65702792D01*
X124020001Y-65702797D01*
X124075186Y-65869334D01*
X124167288Y-66018656D01*
X124291344Y-66142712D01*
X124440666Y-66234814D01*
X124607203Y-66289999D01*
X124709991Y-66300500D01*
X125776500Y-66300499D01*
X125843539Y-66320183D01*
X125889294Y-66372987D01*
X125900500Y-66424499D01*
X125900500Y-69505500D01*
X125880815Y-69572539D01*
X125828011Y-69618294D01*
X125776500Y-69629500D01*
X125345808Y-69629500D01*
X125278769Y-69609815D01*
X125258126Y-69593180D01*
X125226870Y-69561923D01*
X125226862Y-69561917D01*
X125085396Y-69478255D01*
X125085393Y-69478254D01*
X124927573Y-69432402D01*
X124927567Y-69432401D01*
X124890701Y-69429500D01*
X124890694Y-69429500D01*
X123109306Y-69429500D01*
X123109298Y-69429500D01*
X123072432Y-69432401D01*
X123072426Y-69432402D01*
X122914606Y-69478254D01*
X122914603Y-69478255D01*
X122773137Y-69561917D01*
X122773129Y-69561923D01*
X122656923Y-69678129D01*
X122656917Y-69678137D01*
X122573255Y-69819603D01*
X122573254Y-69819606D01*
X122527402Y-69977426D01*
X122527401Y-69977432D01*
X122524500Y-70014298D01*
X122524500Y-70445686D01*
X122524501Y-70445719D01*
X122524655Y-70447674D01*
X122524590Y-70447982D01*
X122524596Y-70448132D01*
X122524558Y-70448133D01*
X122510287Y-70516050D01*
X122488718Y-70545076D01*
X120663158Y-72370636D01*
X120642467Y-72381934D01*
X120624282Y-72396947D01*
X120612365Y-72398370D01*
X120601835Y-72404121D01*
X120578318Y-72402439D01*
X120554905Y-72405237D01*
X120544111Y-72399992D01*
X120532143Y-72399137D01*
X120513267Y-72385006D01*
X120492061Y-72374703D01*
X120480433Y-72360426D01*
X120476210Y-72357265D01*
X120469591Y-72347486D01*
X120469173Y-72346801D01*
X120393081Y-72218135D01*
X120387138Y-72212192D01*
X120379422Y-72199531D01*
X120374072Y-72179560D01*
X120364155Y-72161421D01*
X120365214Y-72146494D01*
X120361343Y-72132040D01*
X120367639Y-72112347D01*
X120369104Y-72091726D01*
X120379311Y-72075842D01*
X120382622Y-72065490D01*
X120389743Y-72059610D01*
X120389940Y-72059304D01*
X120388298Y-72058031D01*
X120393075Y-72051870D01*
X120393081Y-72051865D01*
X120476744Y-71910398D01*
X120516085Y-71774988D01*
X120522597Y-71752573D01*
X120522598Y-71752567D01*
X120525499Y-71715701D01*
X120525500Y-71715694D01*
X120525500Y-71284306D01*
X120522598Y-71247431D01*
X120515075Y-71221538D01*
X120476745Y-71089606D01*
X120476744Y-71089603D01*
X120476744Y-71089602D01*
X120393081Y-70948135D01*
X120393078Y-70948132D01*
X120388298Y-70941969D01*
X120390750Y-70940066D01*
X120364155Y-70891421D01*
X120369104Y-70821726D01*
X120389940Y-70789304D01*
X120388298Y-70788031D01*
X120393075Y-70781870D01*
X120393081Y-70781865D01*
X120476744Y-70640398D01*
X120522598Y-70482569D01*
X120525500Y-70445694D01*
X120525500Y-70014306D01*
X120522598Y-69977431D01*
X120512436Y-69942455D01*
X120476745Y-69819606D01*
X120476744Y-69819603D01*
X120476744Y-69819602D01*
X120393081Y-69678135D01*
X120393079Y-69678133D01*
X120393076Y-69678129D01*
X120276870Y-69561923D01*
X120276862Y-69561917D01*
X120135396Y-69478255D01*
X120135393Y-69478254D01*
X119977573Y-69432402D01*
X119977567Y-69432401D01*
X119940701Y-69429500D01*
X119940694Y-69429500D01*
X119544500Y-69429500D01*
X119477461Y-69409815D01*
X119431706Y-69357011D01*
X119420500Y-69305500D01*
X119420500Y-68724501D01*
X119440185Y-68657462D01*
X119492989Y-68611707D01*
X119544500Y-68600501D01*
X119579054Y-68600501D01*
X119579057Y-68600501D01*
X119731785Y-68559577D01*
X119800777Y-68519744D01*
X119868716Y-68480520D01*
X119980520Y-68368716D01*
X119980521Y-68368714D01*
X120014662Y-68334572D01*
X120075983Y-68301089D01*
X120078150Y-68300638D01*
X120136085Y-68289113D01*
X120233497Y-68269737D01*
X120379179Y-68209394D01*
X120510289Y-68121789D01*
X120621789Y-68010289D01*
X120709394Y-67879179D01*
X120717074Y-67860639D01*
X120769735Y-67733501D01*
X120769737Y-67733497D01*
X120800500Y-67578842D01*
X120800500Y-67421158D01*
X120800500Y-67421155D01*
X120800499Y-67421153D01*
X120769738Y-67266510D01*
X120769737Y-67266503D01*
X120724195Y-67156553D01*
X120709397Y-67120827D01*
X120709390Y-67120814D01*
X120621789Y-66989711D01*
X120621786Y-66989707D01*
X120510292Y-66878213D01*
X120510288Y-66878210D01*
X120379185Y-66790609D01*
X120379172Y-66790602D01*
X120309826Y-66761879D01*
X120255422Y-66718039D01*
X120233357Y-66651745D01*
X120250636Y-66584045D01*
X120269593Y-66559642D01*
X121192417Y-65636819D01*
X121253740Y-65603334D01*
X121280098Y-65600500D01*
X123897837Y-65600500D01*
X123927460Y-65609198D01*
G37*
%TD.AperFunction*%
%TA.AperFunction,NonConductor*%
G36*
X116804703Y-72349383D02*
G01*
X116811177Y-72355412D01*
X117206548Y-72750783D01*
X117596683Y-73140918D01*
X117615371Y-73164869D01*
X117621919Y-73175799D01*
X117623256Y-73180398D01*
X117706919Y-73321865D01*
X117713192Y-73328138D01*
X117721060Y-73341270D01*
X117726152Y-73360869D01*
X117735857Y-73378642D01*
X117734759Y-73393995D01*
X117738630Y-73408894D01*
X117732317Y-73428135D01*
X117730873Y-73448334D01*
X117720287Y-73464804D01*
X117716850Y-73475283D01*
X117710127Y-73480747D01*
X117711702Y-73481969D01*
X117706917Y-73488137D01*
X117623255Y-73629603D01*
X117623254Y-73629606D01*
X117577402Y-73787426D01*
X117577401Y-73787432D01*
X117574500Y-73824298D01*
X117574500Y-74255701D01*
X117577401Y-74292567D01*
X117577402Y-74292573D01*
X117623254Y-74450394D01*
X117623256Y-74450400D01*
X117636396Y-74472618D01*
X117653577Y-74540342D01*
X117631417Y-74606605D01*
X117617344Y-74623419D01*
X116811181Y-75429583D01*
X116749858Y-75463068D01*
X116680167Y-75458084D01*
X116624233Y-75416212D01*
X116599816Y-75350748D01*
X116599500Y-75341902D01*
X116599500Y-72443096D01*
X116619185Y-72376057D01*
X116671989Y-72330302D01*
X116741147Y-72320358D01*
X116804703Y-72349383D01*
G37*
%TD.AperFunction*%
%TA.AperFunction,NonConductor*%
G36*
X107887426Y-73553419D02*
G01*
X107930617Y-73608340D01*
X107939500Y-73654427D01*
X107939500Y-79501742D01*
X107919815Y-79568781D01*
X107871795Y-79612227D01*
X107778461Y-79659783D01*
X107709344Y-79710000D01*
X107593434Y-79794214D01*
X107593432Y-79794216D01*
X107593431Y-79794216D01*
X107431715Y-79955932D01*
X107370318Y-80040438D01*
X107314987Y-80083103D01*
X107245374Y-80089082D01*
X107183579Y-80056476D01*
X107169682Y-80040438D01*
X107126746Y-79981342D01*
X107108286Y-79955934D01*
X106946566Y-79794214D01*
X106761538Y-79659783D01*
X106727695Y-79642539D01*
X106557755Y-79555950D01*
X106340248Y-79485278D01*
X106154812Y-79455908D01*
X106114354Y-79449500D01*
X105885646Y-79449500D01*
X105845188Y-79455908D01*
X105659753Y-79485278D01*
X105659750Y-79485278D01*
X105442244Y-79555950D01*
X105238461Y-79659783D01*
X105055759Y-79792525D01*
X104989952Y-79816005D01*
X104921898Y-79800180D01*
X104873203Y-79750074D01*
X104866690Y-79735538D01*
X104856296Y-79707669D01*
X104856293Y-79707664D01*
X104770047Y-79592455D01*
X104770044Y-79592452D01*
X104654835Y-79506206D01*
X104654828Y-79506202D01*
X104519982Y-79455908D01*
X104519983Y-79455908D01*
X104460383Y-79449501D01*
X104460381Y-79449500D01*
X104460373Y-79449500D01*
X104460365Y-79449500D01*
X102923500Y-79449500D01*
X102856461Y-79429815D01*
X102810706Y-79377011D01*
X102799500Y-79325500D01*
X102799500Y-74486273D01*
X102819185Y-74419234D01*
X102871989Y-74373479D01*
X102941147Y-74363535D01*
X102961812Y-74368340D01*
X103056951Y-74399252D01*
X103112254Y-74417222D01*
X103225200Y-74435111D01*
X103338146Y-74453000D01*
X103338147Y-74453000D01*
X103661853Y-74453000D01*
X103661854Y-74453000D01*
X103887745Y-74417222D01*
X103887748Y-74417221D01*
X103887749Y-74417221D01*
X104105255Y-74346549D01*
X104105255Y-74346548D01*
X104105258Y-74346548D01*
X104309038Y-74242717D01*
X104494066Y-74108286D01*
X104655786Y-73946566D01*
X104790217Y-73761538D01*
X104837773Y-73668205D01*
X104885748Y-73617409D01*
X104948258Y-73600500D01*
X107413331Y-73600500D01*
X107413347Y-73600501D01*
X107420943Y-73600501D01*
X107579054Y-73600501D01*
X107579057Y-73600501D01*
X107731785Y-73559577D01*
X107742451Y-73553419D01*
X107753499Y-73547041D01*
X107821399Y-73530567D01*
X107887426Y-73553419D01*
G37*
%TD.AperFunction*%
M02*
