%TF.GenerationSoftware,KiCad,Pcbnew,9.0.6*%
%TF.CreationDate,2025-12-23T21:48:00+05:30*%
%TF.ProjectId,CLASS D AMPLIFIER,434c4153-5320-4442-9041-4d504c494649,rev?*%
%TF.SameCoordinates,Original*%
%TF.FileFunction,Legend,Top*%
%TF.FilePolarity,Positive*%
%FSLAX46Y46*%
G04 Gerber Fmt 4.6, Leading zero omitted, Abs format (unit mm)*
G04 Created by KiCad (PCBNEW 9.0.6) date 2025-12-23 21:48:00*
%MOMM*%
%LPD*%
G01*
G04 APERTURE LIST*
%ADD10C,0.150000*%
%ADD11C,0.120000*%
G04 APERTURE END LIST*
D10*
X111333333Y-71454819D02*
X110857143Y-71454819D01*
X110857143Y-71454819D02*
X110857143Y-70454819D01*
X112190476Y-71454819D02*
X111619048Y-71454819D01*
X111904762Y-71454819D02*
X111904762Y-70454819D01*
X111904762Y-70454819D02*
X111809524Y-70597676D01*
X111809524Y-70597676D02*
X111714286Y-70692914D01*
X111714286Y-70692914D02*
X111619048Y-70740533D01*
X118333333Y-69409580D02*
X118285714Y-69457200D01*
X118285714Y-69457200D02*
X118142857Y-69504819D01*
X118142857Y-69504819D02*
X118047619Y-69504819D01*
X118047619Y-69504819D02*
X117904762Y-69457200D01*
X117904762Y-69457200D02*
X117809524Y-69361961D01*
X117809524Y-69361961D02*
X117761905Y-69266723D01*
X117761905Y-69266723D02*
X117714286Y-69076247D01*
X117714286Y-69076247D02*
X117714286Y-68933390D01*
X117714286Y-68933390D02*
X117761905Y-68742914D01*
X117761905Y-68742914D02*
X117809524Y-68647676D01*
X117809524Y-68647676D02*
X117904762Y-68552438D01*
X117904762Y-68552438D02*
X118047619Y-68504819D01*
X118047619Y-68504819D02*
X118142857Y-68504819D01*
X118142857Y-68504819D02*
X118285714Y-68552438D01*
X118285714Y-68552438D02*
X118333333Y-68600057D01*
X118666667Y-68504819D02*
X119285714Y-68504819D01*
X119285714Y-68504819D02*
X118952381Y-68885771D01*
X118952381Y-68885771D02*
X119095238Y-68885771D01*
X119095238Y-68885771D02*
X119190476Y-68933390D01*
X119190476Y-68933390D02*
X119238095Y-68981009D01*
X119238095Y-68981009D02*
X119285714Y-69076247D01*
X119285714Y-69076247D02*
X119285714Y-69314342D01*
X119285714Y-69314342D02*
X119238095Y-69409580D01*
X119238095Y-69409580D02*
X119190476Y-69457200D01*
X119190476Y-69457200D02*
X119095238Y-69504819D01*
X119095238Y-69504819D02*
X118809524Y-69504819D01*
X118809524Y-69504819D02*
X118714286Y-69457200D01*
X118714286Y-69457200D02*
X118666667Y-69409580D01*
X120763095Y-68189819D02*
X120763095Y-68999342D01*
X120763095Y-68999342D02*
X120810714Y-69094580D01*
X120810714Y-69094580D02*
X120858333Y-69142200D01*
X120858333Y-69142200D02*
X120953571Y-69189819D01*
X120953571Y-69189819D02*
X121144047Y-69189819D01*
X121144047Y-69189819D02*
X121239285Y-69142200D01*
X121239285Y-69142200D02*
X121286904Y-69094580D01*
X121286904Y-69094580D02*
X121334523Y-68999342D01*
X121334523Y-68999342D02*
X121334523Y-68189819D01*
X122334523Y-69189819D02*
X121763095Y-69189819D01*
X122048809Y-69189819D02*
X122048809Y-68189819D01*
X122048809Y-68189819D02*
X121953571Y-68332676D01*
X121953571Y-68332676D02*
X121858333Y-68427914D01*
X121858333Y-68427914D02*
X121763095Y-68475533D01*
X125404819Y-70846666D02*
X124928628Y-71179999D01*
X125404819Y-71418094D02*
X124404819Y-71418094D01*
X124404819Y-71418094D02*
X124404819Y-71037142D01*
X124404819Y-71037142D02*
X124452438Y-70941904D01*
X124452438Y-70941904D02*
X124500057Y-70894285D01*
X124500057Y-70894285D02*
X124595295Y-70846666D01*
X124595295Y-70846666D02*
X124738152Y-70846666D01*
X124738152Y-70846666D02*
X124833390Y-70894285D01*
X124833390Y-70894285D02*
X124881009Y-70941904D01*
X124881009Y-70941904D02*
X124928628Y-71037142D01*
X124928628Y-71037142D02*
X124928628Y-71418094D01*
X124404819Y-70513332D02*
X124404819Y-69894285D01*
X124404819Y-69894285D02*
X124785771Y-70227618D01*
X124785771Y-70227618D02*
X124785771Y-70084761D01*
X124785771Y-70084761D02*
X124833390Y-69989523D01*
X124833390Y-69989523D02*
X124881009Y-69941904D01*
X124881009Y-69941904D02*
X124976247Y-69894285D01*
X124976247Y-69894285D02*
X125214342Y-69894285D01*
X125214342Y-69894285D02*
X125309580Y-69941904D01*
X125309580Y-69941904D02*
X125357200Y-69989523D01*
X125357200Y-69989523D02*
X125404819Y-70084761D01*
X125404819Y-70084761D02*
X125404819Y-70370475D01*
X125404819Y-70370475D02*
X125357200Y-70465713D01*
X125357200Y-70465713D02*
X125309580Y-70513332D01*
X115904819Y-69846666D02*
X115428628Y-70179999D01*
X115904819Y-70418094D02*
X114904819Y-70418094D01*
X114904819Y-70418094D02*
X114904819Y-70037142D01*
X114904819Y-70037142D02*
X114952438Y-69941904D01*
X114952438Y-69941904D02*
X115000057Y-69894285D01*
X115000057Y-69894285D02*
X115095295Y-69846666D01*
X115095295Y-69846666D02*
X115238152Y-69846666D01*
X115238152Y-69846666D02*
X115333390Y-69894285D01*
X115333390Y-69894285D02*
X115381009Y-69941904D01*
X115381009Y-69941904D02*
X115428628Y-70037142D01*
X115428628Y-70037142D02*
X115428628Y-70418094D01*
X115000057Y-69465713D02*
X114952438Y-69418094D01*
X114952438Y-69418094D02*
X114904819Y-69322856D01*
X114904819Y-69322856D02*
X114904819Y-69084761D01*
X114904819Y-69084761D02*
X114952438Y-68989523D01*
X114952438Y-68989523D02*
X115000057Y-68941904D01*
X115000057Y-68941904D02*
X115095295Y-68894285D01*
X115095295Y-68894285D02*
X115190533Y-68894285D01*
X115190533Y-68894285D02*
X115333390Y-68941904D01*
X115333390Y-68941904D02*
X115904819Y-69513332D01*
X115904819Y-69513332D02*
X115904819Y-68894285D01*
X125404819Y-72666666D02*
X124928628Y-72999999D01*
X125404819Y-73238094D02*
X124404819Y-73238094D01*
X124404819Y-73238094D02*
X124404819Y-72857142D01*
X124404819Y-72857142D02*
X124452438Y-72761904D01*
X124452438Y-72761904D02*
X124500057Y-72714285D01*
X124500057Y-72714285D02*
X124595295Y-72666666D01*
X124595295Y-72666666D02*
X124738152Y-72666666D01*
X124738152Y-72666666D02*
X124833390Y-72714285D01*
X124833390Y-72714285D02*
X124881009Y-72761904D01*
X124881009Y-72761904D02*
X124928628Y-72857142D01*
X124928628Y-72857142D02*
X124928628Y-73238094D01*
X125404819Y-71714285D02*
X125404819Y-72285713D01*
X125404819Y-71999999D02*
X124404819Y-71999999D01*
X124404819Y-71999999D02*
X124547676Y-72095237D01*
X124547676Y-72095237D02*
X124642914Y-72190475D01*
X124642914Y-72190475D02*
X124690533Y-72285713D01*
X105904761Y-77400057D02*
X105809523Y-77352438D01*
X105809523Y-77352438D02*
X105714285Y-77257200D01*
X105714285Y-77257200D02*
X105571428Y-77114342D01*
X105571428Y-77114342D02*
X105476190Y-77066723D01*
X105476190Y-77066723D02*
X105380952Y-77066723D01*
X105428571Y-77304819D02*
X105333333Y-77257200D01*
X105333333Y-77257200D02*
X105238095Y-77161961D01*
X105238095Y-77161961D02*
X105190476Y-76971485D01*
X105190476Y-76971485D02*
X105190476Y-76638152D01*
X105190476Y-76638152D02*
X105238095Y-76447676D01*
X105238095Y-76447676D02*
X105333333Y-76352438D01*
X105333333Y-76352438D02*
X105428571Y-76304819D01*
X105428571Y-76304819D02*
X105619047Y-76304819D01*
X105619047Y-76304819D02*
X105714285Y-76352438D01*
X105714285Y-76352438D02*
X105809523Y-76447676D01*
X105809523Y-76447676D02*
X105857142Y-76638152D01*
X105857142Y-76638152D02*
X105857142Y-76971485D01*
X105857142Y-76971485D02*
X105809523Y-77161961D01*
X105809523Y-77161961D02*
X105714285Y-77257200D01*
X105714285Y-77257200D02*
X105619047Y-77304819D01*
X105619047Y-77304819D02*
X105428571Y-77304819D01*
X106238095Y-76400057D02*
X106285714Y-76352438D01*
X106285714Y-76352438D02*
X106380952Y-76304819D01*
X106380952Y-76304819D02*
X106619047Y-76304819D01*
X106619047Y-76304819D02*
X106714285Y-76352438D01*
X106714285Y-76352438D02*
X106761904Y-76400057D01*
X106761904Y-76400057D02*
X106809523Y-76495295D01*
X106809523Y-76495295D02*
X106809523Y-76590533D01*
X106809523Y-76590533D02*
X106761904Y-76733390D01*
X106761904Y-76733390D02*
X106190476Y-77304819D01*
X106190476Y-77304819D02*
X106809523Y-77304819D01*
X105000057Y-70555238D02*
X104952438Y-70650476D01*
X104952438Y-70650476D02*
X104857200Y-70745714D01*
X104857200Y-70745714D02*
X104714342Y-70888571D01*
X104714342Y-70888571D02*
X104666723Y-70983809D01*
X104666723Y-70983809D02*
X104666723Y-71079047D01*
X104904819Y-71031428D02*
X104857200Y-71126666D01*
X104857200Y-71126666D02*
X104761961Y-71221904D01*
X104761961Y-71221904D02*
X104571485Y-71269523D01*
X104571485Y-71269523D02*
X104238152Y-71269523D01*
X104238152Y-71269523D02*
X104047676Y-71221904D01*
X104047676Y-71221904D02*
X103952438Y-71126666D01*
X103952438Y-71126666D02*
X103904819Y-71031428D01*
X103904819Y-71031428D02*
X103904819Y-70840952D01*
X103904819Y-70840952D02*
X103952438Y-70745714D01*
X103952438Y-70745714D02*
X104047676Y-70650476D01*
X104047676Y-70650476D02*
X104238152Y-70602857D01*
X104238152Y-70602857D02*
X104571485Y-70602857D01*
X104571485Y-70602857D02*
X104761961Y-70650476D01*
X104761961Y-70650476D02*
X104857200Y-70745714D01*
X104857200Y-70745714D02*
X104904819Y-70840952D01*
X104904819Y-70840952D02*
X104904819Y-71031428D01*
X104904819Y-69650476D02*
X104904819Y-70221904D01*
X104904819Y-69936190D02*
X103904819Y-69936190D01*
X103904819Y-69936190D02*
X104047676Y-70031428D01*
X104047676Y-70031428D02*
X104142914Y-70126666D01*
X104142914Y-70126666D02*
X104190533Y-70221904D01*
X126617319Y-81058333D02*
X127331604Y-81058333D01*
X127331604Y-81058333D02*
X127474461Y-81105952D01*
X127474461Y-81105952D02*
X127569700Y-81201190D01*
X127569700Y-81201190D02*
X127617319Y-81344047D01*
X127617319Y-81344047D02*
X127617319Y-81439285D01*
X126617319Y-80677380D02*
X126617319Y-80058333D01*
X126617319Y-80058333D02*
X126998271Y-80391666D01*
X126998271Y-80391666D02*
X126998271Y-80248809D01*
X126998271Y-80248809D02*
X127045890Y-80153571D01*
X127045890Y-80153571D02*
X127093509Y-80105952D01*
X127093509Y-80105952D02*
X127188747Y-80058333D01*
X127188747Y-80058333D02*
X127426842Y-80058333D01*
X127426842Y-80058333D02*
X127522080Y-80105952D01*
X127522080Y-80105952D02*
X127569700Y-80153571D01*
X127569700Y-80153571D02*
X127617319Y-80248809D01*
X127617319Y-80248809D02*
X127617319Y-80534523D01*
X127617319Y-80534523D02*
X127569700Y-80629761D01*
X127569700Y-80629761D02*
X127522080Y-80677380D01*
X119666666Y-49952319D02*
X119666666Y-50666604D01*
X119666666Y-50666604D02*
X119619047Y-50809461D01*
X119619047Y-50809461D02*
X119523809Y-50904700D01*
X119523809Y-50904700D02*
X119380952Y-50952319D01*
X119380952Y-50952319D02*
X119285714Y-50952319D01*
X120095238Y-50047557D02*
X120142857Y-49999938D01*
X120142857Y-49999938D02*
X120238095Y-49952319D01*
X120238095Y-49952319D02*
X120476190Y-49952319D01*
X120476190Y-49952319D02*
X120571428Y-49999938D01*
X120571428Y-49999938D02*
X120619047Y-50047557D01*
X120619047Y-50047557D02*
X120666666Y-50142795D01*
X120666666Y-50142795D02*
X120666666Y-50238033D01*
X120666666Y-50238033D02*
X120619047Y-50380890D01*
X120619047Y-50380890D02*
X120047619Y-50952319D01*
X120047619Y-50952319D02*
X120666666Y-50952319D01*
X107666666Y-49952319D02*
X107666666Y-50666604D01*
X107666666Y-50666604D02*
X107619047Y-50809461D01*
X107619047Y-50809461D02*
X107523809Y-50904700D01*
X107523809Y-50904700D02*
X107380952Y-50952319D01*
X107380952Y-50952319D02*
X107285714Y-50952319D01*
X108666666Y-50952319D02*
X108095238Y-50952319D01*
X108380952Y-50952319D02*
X108380952Y-49952319D01*
X108380952Y-49952319D02*
X108285714Y-50095176D01*
X108285714Y-50095176D02*
X108190476Y-50190414D01*
X108190476Y-50190414D02*
X108095238Y-50238033D01*
X120761905Y-67574819D02*
X120761905Y-66574819D01*
X120761905Y-66574819D02*
X121000000Y-66574819D01*
X121000000Y-66574819D02*
X121142857Y-66622438D01*
X121142857Y-66622438D02*
X121238095Y-66717676D01*
X121238095Y-66717676D02*
X121285714Y-66812914D01*
X121285714Y-66812914D02*
X121333333Y-67003390D01*
X121333333Y-67003390D02*
X121333333Y-67146247D01*
X121333333Y-67146247D02*
X121285714Y-67336723D01*
X121285714Y-67336723D02*
X121238095Y-67431961D01*
X121238095Y-67431961D02*
X121142857Y-67527200D01*
X121142857Y-67527200D02*
X121000000Y-67574819D01*
X121000000Y-67574819D02*
X120761905Y-67574819D01*
X122285714Y-67574819D02*
X121714286Y-67574819D01*
X122000000Y-67574819D02*
X122000000Y-66574819D01*
X122000000Y-66574819D02*
X121904762Y-66717676D01*
X121904762Y-66717676D02*
X121809524Y-66812914D01*
X121809524Y-66812914D02*
X121714286Y-66860533D01*
X125048095Y-67254819D02*
X125048095Y-66254819D01*
X125619523Y-67254819D02*
X125190952Y-66683390D01*
X125619523Y-66254819D02*
X125048095Y-66826247D01*
X123809580Y-76321666D02*
X123857200Y-76369285D01*
X123857200Y-76369285D02*
X123904819Y-76512142D01*
X123904819Y-76512142D02*
X123904819Y-76607380D01*
X123904819Y-76607380D02*
X123857200Y-76750237D01*
X123857200Y-76750237D02*
X123761961Y-76845475D01*
X123761961Y-76845475D02*
X123666723Y-76893094D01*
X123666723Y-76893094D02*
X123476247Y-76940713D01*
X123476247Y-76940713D02*
X123333390Y-76940713D01*
X123333390Y-76940713D02*
X123142914Y-76893094D01*
X123142914Y-76893094D02*
X123047676Y-76845475D01*
X123047676Y-76845475D02*
X122952438Y-76750237D01*
X122952438Y-76750237D02*
X122904819Y-76607380D01*
X122904819Y-76607380D02*
X122904819Y-76512142D01*
X122904819Y-76512142D02*
X122952438Y-76369285D01*
X122952438Y-76369285D02*
X123000057Y-76321666D01*
X123238152Y-75464523D02*
X123904819Y-75464523D01*
X122857200Y-75702618D02*
X123571485Y-75940713D01*
X123571485Y-75940713D02*
X123571485Y-75321666D01*
X114988333Y-64809580D02*
X114940714Y-64857200D01*
X114940714Y-64857200D02*
X114797857Y-64904819D01*
X114797857Y-64904819D02*
X114702619Y-64904819D01*
X114702619Y-64904819D02*
X114559762Y-64857200D01*
X114559762Y-64857200D02*
X114464524Y-64761961D01*
X114464524Y-64761961D02*
X114416905Y-64666723D01*
X114416905Y-64666723D02*
X114369286Y-64476247D01*
X114369286Y-64476247D02*
X114369286Y-64333390D01*
X114369286Y-64333390D02*
X114416905Y-64142914D01*
X114416905Y-64142914D02*
X114464524Y-64047676D01*
X114464524Y-64047676D02*
X114559762Y-63952438D01*
X114559762Y-63952438D02*
X114702619Y-63904819D01*
X114702619Y-63904819D02*
X114797857Y-63904819D01*
X114797857Y-63904819D02*
X114940714Y-63952438D01*
X114940714Y-63952438D02*
X114988333Y-64000057D01*
X115369286Y-64000057D02*
X115416905Y-63952438D01*
X115416905Y-63952438D02*
X115512143Y-63904819D01*
X115512143Y-63904819D02*
X115750238Y-63904819D01*
X115750238Y-63904819D02*
X115845476Y-63952438D01*
X115845476Y-63952438D02*
X115893095Y-64000057D01*
X115893095Y-64000057D02*
X115940714Y-64095295D01*
X115940714Y-64095295D02*
X115940714Y-64190533D01*
X115940714Y-64190533D02*
X115893095Y-64333390D01*
X115893095Y-64333390D02*
X115321667Y-64904819D01*
X115321667Y-64904819D02*
X115940714Y-64904819D01*
X112488333Y-64309580D02*
X112440714Y-64357200D01*
X112440714Y-64357200D02*
X112297857Y-64404819D01*
X112297857Y-64404819D02*
X112202619Y-64404819D01*
X112202619Y-64404819D02*
X112059762Y-64357200D01*
X112059762Y-64357200D02*
X111964524Y-64261961D01*
X111964524Y-64261961D02*
X111916905Y-64166723D01*
X111916905Y-64166723D02*
X111869286Y-63976247D01*
X111869286Y-63976247D02*
X111869286Y-63833390D01*
X111869286Y-63833390D02*
X111916905Y-63642914D01*
X111916905Y-63642914D02*
X111964524Y-63547676D01*
X111964524Y-63547676D02*
X112059762Y-63452438D01*
X112059762Y-63452438D02*
X112202619Y-63404819D01*
X112202619Y-63404819D02*
X112297857Y-63404819D01*
X112297857Y-63404819D02*
X112440714Y-63452438D01*
X112440714Y-63452438D02*
X112488333Y-63500057D01*
X113440714Y-64404819D02*
X112869286Y-64404819D01*
X113155000Y-64404819D02*
X113155000Y-63404819D01*
X113155000Y-63404819D02*
X113059762Y-63547676D01*
X113059762Y-63547676D02*
X112964524Y-63642914D01*
X112964524Y-63642914D02*
X112869286Y-63690533D01*
D11*
%TO.C,L1*%
X115050000Y-74700000D02*
X108450000Y-74700000D01*
X115050000Y-73000000D02*
X115050000Y-74700000D01*
X115050000Y-68300000D02*
X115050000Y-70000000D01*
X108450000Y-74700000D02*
X108450000Y-73000000D01*
X108450000Y-70000000D02*
X108450000Y-68300000D01*
X108450000Y-68300000D02*
X115050000Y-68300000D01*
%TO.C,U1*%
X119465000Y-69575000D02*
X123585000Y-69575000D01*
X119465000Y-69670000D02*
X119465000Y-69575000D01*
X119465000Y-74695000D02*
X119465000Y-74600000D01*
X123585000Y-69575000D02*
X123585000Y-69670000D01*
X123585000Y-74600000D02*
X123585000Y-74695000D01*
X123585000Y-74695000D02*
X119465000Y-74695000D01*
X118925000Y-69665000D02*
X118685000Y-69335000D01*
X119165000Y-69335000D01*
X118925000Y-69665000D01*
G36*
X118925000Y-69665000D02*
G01*
X118685000Y-69335000D01*
X119165000Y-69335000D01*
X118925000Y-69665000D01*
G37*
%TO.C,Q2*%
X100890000Y-77690000D02*
X111110000Y-77690000D01*
X100890000Y-79070000D02*
X111110000Y-79070000D01*
X100890000Y-82310000D02*
X100890000Y-77690000D01*
X104150000Y-77690000D02*
X104150000Y-79070000D01*
X107850000Y-77690000D02*
X107850000Y-79070000D01*
X111110000Y-77690000D02*
X111110000Y-82310000D01*
X111110000Y-82310000D02*
X100890000Y-82310000D01*
%TO.C,Q1*%
X106760000Y-65350000D02*
X106760000Y-75570000D01*
X105380000Y-65350000D02*
X105380000Y-75570000D01*
X102140000Y-65350000D02*
X106760000Y-65350000D01*
X106760000Y-68610000D02*
X105380000Y-68610000D01*
X106760000Y-72310000D02*
X105380000Y-72310000D01*
X106760000Y-75570000D02*
X102140000Y-75570000D01*
X102140000Y-75570000D02*
X102140000Y-65350000D01*
%TO.C,J3*%
X126252500Y-77880000D02*
X126252500Y-83120000D01*
X118832500Y-77880000D02*
X118832500Y-83120000D01*
X114012500Y-77880000D02*
X126252500Y-77880000D01*
X126252500Y-79450000D02*
X114012500Y-79450000D01*
X114012500Y-80900000D02*
X114012500Y-77880000D01*
X126252500Y-83120000D02*
X114012500Y-83120000D01*
X114012500Y-83120000D02*
X114012500Y-81500000D01*
X116132500Y-79750000D02*
G75*
G02*
X116132500Y-82650000I-339130J-1450000D01*
G01*
X116132500Y-82650000D02*
G75*
G02*
X116132500Y-79750000I339130J1450000D01*
G01*
X114012500Y-81200000D02*
X113402500Y-81640000D01*
X113402500Y-80760000D01*
X114012500Y-81200000D01*
G36*
X114012500Y-81200000D02*
G01*
X113402500Y-81640000D01*
X113402500Y-80760000D01*
X114012500Y-81200000D01*
G37*
%TO.C,J2*%
X114880000Y-51497500D02*
X125120000Y-51497500D01*
X114880000Y-55117500D02*
X125120000Y-55117500D01*
X114880000Y-56117500D02*
X125120000Y-56117500D01*
X114880000Y-60117500D02*
X125120000Y-60117500D01*
X114880000Y-62237500D02*
X114880000Y-51497500D01*
X117200000Y-62237500D02*
X114880000Y-62237500D01*
X125120000Y-51497500D02*
X125120000Y-62237500D01*
X125120000Y-62237500D02*
X117800000Y-62237500D01*
X117940000Y-62847500D02*
X117060000Y-62847500D01*
X117500000Y-62237500D01*
X117940000Y-62847500D01*
G36*
X117940000Y-62847500D02*
G01*
X117060000Y-62847500D01*
X117500000Y-62237500D01*
X117940000Y-62847500D01*
G37*
%TO.C,J1*%
X102880000Y-51497500D02*
X113120000Y-51497500D01*
X102880000Y-55117500D02*
X113120000Y-55117500D01*
X102880000Y-56117500D02*
X113120000Y-56117500D01*
X102880000Y-60117500D02*
X113120000Y-60117500D01*
X102880000Y-62237500D02*
X102880000Y-51497500D01*
X105200000Y-62237500D02*
X102880000Y-62237500D01*
X113120000Y-51497500D02*
X113120000Y-62237500D01*
X113120000Y-62237500D02*
X105800000Y-62237500D01*
X105940000Y-62847500D02*
X105060000Y-62847500D01*
X105500000Y-62237500D01*
X105940000Y-62847500D01*
G36*
X105940000Y-62847500D02*
G01*
X105060000Y-62847500D01*
X105500000Y-62237500D01*
X105940000Y-62847500D01*
G37*
%TO.C,D1*%
X124270000Y-65000000D02*
X123620000Y-65000000D01*
X123020000Y-66120000D02*
X123020000Y-63880000D01*
X122900000Y-66120000D02*
X122900000Y-63880000D01*
X122780000Y-66120000D02*
X122780000Y-63880000D01*
X118730000Y-65000000D02*
X119380000Y-65000000D01*
X123620000Y-66120000D02*
X119380000Y-66120000D01*
X119380000Y-63880000D01*
X123620000Y-63880000D01*
X123620000Y-66120000D01*
%TD*%
M02*
