%TF.GenerationSoftware,KiCad,Pcbnew,9.0.6*%
%TF.CreationDate,2025-11-19T21:55:10+05:30*%
%TF.ProjectId,class d  amplifier,636c6173-7320-4642-9020-616d706c6966,rev?*%
%TF.SameCoordinates,Original*%
%TF.FileFunction,Copper,L1,Top*%
%TF.FilePolarity,Positive*%
%FSLAX46Y46*%
G04 Gerber Fmt 4.6, Leading zero omitted, Abs format (unit mm)*
G04 Created by KiCad (PCBNEW 9.0.6) date 2025-11-19 21:55:10*
%MOMM*%
%LPD*%
G01*
G04 APERTURE LIST*
G04 Aperture macros list*
%AMRoundRect*
0 Rectangle with rounded corners*
0 $1 Rounding radius*
0 $2 $3 $4 $5 $6 $7 $8 $9 X,Y pos of 4 corners*
0 Add a 4 corners polygon primitive as box body*
4,1,4,$2,$3,$4,$5,$6,$7,$8,$9,$2,$3,0*
0 Add four circle primitives for the rounded corners*
1,1,$1+$1,$2,$3*
1,1,$1+$1,$4,$5*
1,1,$1+$1,$6,$7*
1,1,$1+$1,$8,$9*
0 Add four rect primitives between the rounded corners*
20,1,$1+$1,$2,$3,$4,$5,0*
20,1,$1+$1,$4,$5,$6,$7,0*
20,1,$1+$1,$6,$7,$8,$9,0*
20,1,$1+$1,$8,$9,$2,$3,0*%
G04 Aperture macros list end*
%TA.AperFunction,SMDPad,CuDef*%
%ADD10RoundRect,0.150000X-0.825000X-0.150000X0.825000X-0.150000X0.825000X0.150000X-0.825000X0.150000X0*%
%TD*%
%TA.AperFunction,ComponentPad*%
%ADD11C,2.400000*%
%TD*%
%TA.AperFunction,ComponentPad*%
%ADD12RoundRect,0.250000X-0.550000X-0.550000X0.550000X-0.550000X0.550000X0.550000X-0.550000X0.550000X0*%
%TD*%
%TA.AperFunction,ComponentPad*%
%ADD13C,1.600000*%
%TD*%
%TA.AperFunction,ComponentPad*%
%ADD14C,3.000000*%
%TD*%
%TA.AperFunction,ComponentPad*%
%ADD15RoundRect,0.250000X1.250000X-0.750000X1.250000X0.750000X-1.250000X0.750000X-1.250000X-0.750000X0*%
%TD*%
%TA.AperFunction,ComponentPad*%
%ADD16R,1.905000X2.000000*%
%TD*%
%TA.AperFunction,ComponentPad*%
%ADD17O,1.905000X2.000000*%
%TD*%
%TA.AperFunction,ComponentPad*%
%ADD18RoundRect,0.250001X-1.149999X-1.149999X1.149999X-1.149999X1.149999X1.149999X-1.149999X1.149999X0*%
%TD*%
%TA.AperFunction,ComponentPad*%
%ADD19C,2.800000*%
%TD*%
%TA.AperFunction,ViaPad*%
%ADD20C,0.600000*%
%TD*%
%TA.AperFunction,Conductor*%
%ADD21C,0.200000*%
%TD*%
G04 APERTURE END LIST*
D10*
%TO.P,U1,1,GND*%
%TO.N,Net-(J2-Pin_2)*%
X95025000Y-90595000D03*
%TO.P,U1,2,TR*%
%TO.N,Net-(D1-K)*%
X95025000Y-91865000D03*
%TO.P,U1,3,Q*%
%TO.N,Net-(U1-Q)*%
X95025000Y-93135000D03*
%TO.P,U1,4,R*%
%TO.N,Net-(J2-Pin_1)*%
X95025000Y-94405000D03*
%TO.P,U1,5,CV*%
%TO.N,Net-(U1-CV)*%
X99975000Y-94405000D03*
%TO.P,U1,6,THR*%
%TO.N,Net-(D1-A)*%
X99975000Y-93135000D03*
%TO.P,U1,7,DIS*%
%TO.N,Net-(U1-DIS)*%
X99975000Y-91865000D03*
%TO.P,U1,8,VCC*%
%TO.N,Net-(J2-Pin_1)*%
X99975000Y-90595000D03*
%TD*%
D11*
%TO.P,R1,1*%
%TO.N,Net-(U1-DIS)*%
X103500000Y-74910000D03*
%TO.P,R1,2*%
%TO.N,Net-(J2-Pin_1)*%
X103500000Y-67290000D03*
%TD*%
D12*
%TO.P,D1,1,K*%
%TO.N,Net-(D1-K)*%
X83000000Y-92000000D03*
D13*
%TO.P,D1,2,A*%
%TO.N,Net-(D1-A)*%
X90620000Y-92000000D03*
%TD*%
D14*
%TO.P,L1,1,1*%
%TO.N,Net-(Q1-E)*%
X114800000Y-61500000D03*
%TO.P,L1,2,2*%
%TO.N,Net-(C3-Pad1)*%
X129500000Y-61500000D03*
%TD*%
D11*
%TO.P,C2,1*%
%TO.N,Net-(J1-Pin_1)*%
X85250000Y-85000000D03*
%TO.P,C2,2*%
%TO.N,Net-(U1-CV)*%
X93000000Y-85000000D03*
%TD*%
%TO.P,C3,1*%
%TO.N,Net-(C3-Pad1)*%
X99125000Y-83000000D03*
%TO.P,C3,2*%
%TO.N,Net-(J2-Pin_2)*%
X106875000Y-83000000D03*
%TD*%
D15*
%TO.P,J1,1,Pin_1*%
%TO.N,Net-(J1-Pin_1)*%
X106717500Y-91800000D03*
%TD*%
D11*
%TO.P,C1,1*%
%TO.N,Net-(D1-K)*%
X86125000Y-68000000D03*
%TO.P,C1,2*%
%TO.N,Net-(J2-Pin_2)*%
X93875000Y-68000000D03*
%TD*%
D16*
%TO.P,Q1,1,B*%
%TO.N,Net-(Q1-B)*%
X122000000Y-77000000D03*
D17*
%TO.P,Q1,2,C*%
%TO.N,Net-(J2-Pin_1)*%
X124540000Y-77000000D03*
%TO.P,Q1,3,E*%
%TO.N,Net-(Q1-E)*%
X127080000Y-77000000D03*
%TD*%
D11*
%TO.P,R2,1*%
%TO.N,Net-(D1-A)*%
X86880000Y-76500000D03*
%TO.P,R2,2*%
%TO.N,Net-(U1-DIS)*%
X94500000Y-76500000D03*
%TD*%
D18*
%TO.P,J3,1,Pin_1*%
%TO.N,Net-(J3-Pin_1)*%
X103000000Y-57500000D03*
D19*
%TO.P,J3,2,Pin_2*%
%TO.N,Net-(J2-Pin_2)*%
X108000000Y-57500000D03*
%TD*%
D11*
%TO.P,R3,1*%
%TO.N,Net-(U1-Q)*%
X121880000Y-92500000D03*
%TO.P,R3,2*%
%TO.N,Net-(Q1-B)*%
X129500000Y-92500000D03*
%TD*%
D16*
%TO.P,Q2,1,B*%
%TO.N,Net-(Q1-B)*%
X122500000Y-85500000D03*
D17*
%TO.P,Q2,2,C*%
%TO.N,Net-(J2-Pin_2)*%
X125040000Y-85500000D03*
%TO.P,Q2,3,E*%
%TO.N,Net-(Q1-E)*%
X127580000Y-85500000D03*
%TD*%
D18*
%TO.P,J2,1,Pin_1*%
%TO.N,Net-(J2-Pin_1)*%
X88000000Y-57000000D03*
D19*
%TO.P,J2,2,Pin_2*%
%TO.N,Net-(J2-Pin_2)*%
X93000000Y-57000000D03*
%TD*%
D11*
%TO.P,C4,1*%
%TO.N,Net-(C3-Pad1)*%
X113000000Y-82750000D03*
%TO.P,C4,2*%
%TO.N,Net-(J3-Pin_1)*%
X113000000Y-75000000D03*
%TD*%
D20*
%TO.N,Net-(D1-K)*%
X93600000Y-92500000D03*
%TO.N,Net-(J2-Pin_2)*%
X120000000Y-88000000D03*
X94500000Y-88000000D03*
%TO.N,Net-(C3-Pad1)*%
X110000000Y-79500000D03*
%TO.N,Net-(J2-Pin_1)*%
X111000000Y-78500000D03*
X100500000Y-89500000D03*
%TO.N,Net-(Q1-B)*%
X122500000Y-81000000D03*
%TO.N,Net-(U1-Q)*%
X97500000Y-95400000D03*
%TD*%
D21*
%TO.N,Net-(D1-K)*%
X82000000Y-91000000D02*
X82000000Y-72125000D01*
X83000000Y-92000000D02*
X82000000Y-91000000D01*
X82000000Y-72125000D02*
X86125000Y-68000000D01*
X95025000Y-91865000D02*
X94235000Y-91865000D01*
X94235000Y-91865000D02*
X93600000Y-92500000D01*
%TO.N,Net-(J2-Pin_2)*%
X95025000Y-90595000D02*
X94500000Y-90070000D01*
X103500000Y-69500000D02*
X95375000Y-69500000D01*
X95375000Y-69500000D02*
X93875000Y-68000000D01*
X108500000Y-74500000D02*
X103500000Y-69500000D01*
X93875000Y-68000000D02*
X93875000Y-57875000D01*
X111875000Y-88000000D02*
X120000000Y-88000000D01*
X94500000Y-90070000D02*
X94500000Y-88000000D01*
X106875000Y-83000000D02*
X111875000Y-88000000D01*
X108500000Y-81375000D02*
X108500000Y-74500000D01*
X106875000Y-83000000D02*
X108500000Y-81375000D01*
X93875000Y-57875000D02*
X93000000Y-57000000D01*
%TO.N,Net-(U1-CV)*%
X94000000Y-96000000D02*
X100500000Y-96000000D01*
X100500000Y-96000000D02*
X100500000Y-94930000D01*
X93000000Y-85000000D02*
X93000000Y-95000000D01*
X100500000Y-94930000D02*
X99975000Y-94405000D01*
X93000000Y-95000000D02*
X94000000Y-96000000D01*
%TO.N,Net-(J1-Pin_1)*%
X96500000Y-86000000D02*
X96000000Y-85500000D01*
X96000000Y-85500000D02*
X96000000Y-82000000D01*
X104300000Y-91800000D02*
X98500000Y-86000000D01*
X98500000Y-86000000D02*
X96500000Y-86000000D01*
X88250000Y-82000000D02*
X85250000Y-85000000D01*
X96000000Y-82000000D02*
X88250000Y-82000000D01*
X106717500Y-91800000D02*
X104300000Y-91800000D01*
%TO.N,Net-(C3-Pad1)*%
X113000000Y-82750000D02*
X110000000Y-79750000D01*
X110000000Y-79750000D02*
X110000000Y-79500000D01*
%TO.N,Net-(J3-Pin_1)*%
X103000000Y-59000000D02*
X103000000Y-57500000D01*
X108000000Y-64000000D02*
X103000000Y-59000000D01*
X113000000Y-75000000D02*
X108000000Y-70000000D01*
X108000000Y-70000000D02*
X108000000Y-64000000D01*
%TO.N,Net-(D1-A)*%
X102500000Y-96500000D02*
X102500000Y-93270000D01*
X82500000Y-87500000D02*
X82500000Y-80880000D01*
X94000000Y-97000000D02*
X102000000Y-97000000D01*
X90620000Y-92000000D02*
X87000000Y-92000000D01*
X102500000Y-93270000D02*
X102365000Y-93135000D01*
X90620000Y-93620000D02*
X94000000Y-97000000D01*
X102365000Y-93135000D02*
X99975000Y-93135000D01*
X82500000Y-80880000D02*
X86880000Y-76500000D01*
X90620000Y-92000000D02*
X90620000Y-93620000D01*
X87000000Y-92000000D02*
X82500000Y-87500000D01*
X102000000Y-97000000D02*
X102500000Y-96500000D01*
%TO.N,Net-(J2-Pin_1)*%
X119000000Y-80000000D02*
X124500000Y-80000000D01*
X98500000Y-91000000D02*
X98905000Y-90595000D01*
X95500000Y-54000000D02*
X99000000Y-57500000D01*
X116500000Y-77500000D02*
X119000000Y-80000000D01*
X103500000Y-67290000D02*
X109500000Y-73290000D01*
X111000000Y-77500000D02*
X111000000Y-78500000D01*
X124500000Y-80000000D02*
X124540000Y-79960000D01*
X124540000Y-79960000D02*
X124540000Y-77000000D01*
X91000000Y-54000000D02*
X95500000Y-54000000D01*
X99000000Y-57500000D02*
X99000000Y-64500000D01*
X88000000Y-57000000D02*
X91000000Y-54000000D01*
X99000000Y-64500000D02*
X101790000Y-67290000D01*
X111000000Y-77500000D02*
X116500000Y-77500000D01*
X101790000Y-67290000D02*
X103500000Y-67290000D01*
X110000000Y-77500000D02*
X111000000Y-77500000D01*
X99975000Y-90595000D02*
X100500000Y-90070000D01*
X95025000Y-94405000D02*
X95999999Y-94405000D01*
X100500000Y-90070000D02*
X100500000Y-89500000D01*
X98905000Y-90595000D02*
X99975000Y-90595000D01*
X109500000Y-73290000D02*
X109500000Y-77000000D01*
X109500000Y-77000000D02*
X110000000Y-77500000D01*
X98500000Y-91904999D02*
X98500000Y-91000000D01*
X95999999Y-94405000D02*
X98500000Y-91904999D01*
%TO.N,Net-(Q1-E)*%
X114800000Y-61500000D02*
X114800000Y-64720000D01*
X114800000Y-64720000D02*
X127080000Y-77000000D01*
X127580000Y-77500000D02*
X127080000Y-77000000D01*
X127580000Y-85500000D02*
X127580000Y-77500000D01*
%TO.N,Net-(Q1-B)*%
X129500000Y-92500000D02*
X122500000Y-85500000D01*
X122500000Y-85500000D02*
X122500000Y-81000000D01*
%TO.N,Net-(U1-DIS)*%
X94500000Y-76500000D02*
X101910000Y-76500000D01*
X99975000Y-91865000D02*
X102365000Y-91865000D01*
X105000000Y-94500000D02*
X110000000Y-94500000D01*
X101910000Y-76500000D02*
X103500000Y-74910000D01*
X110000000Y-89500000D02*
X101910000Y-81410000D01*
X101910000Y-81410000D02*
X101910000Y-76500000D01*
X102365000Y-91865000D02*
X105000000Y-94500000D01*
X110000000Y-94500000D02*
X110000000Y-89500000D01*
%TO.N,Net-(U1-Q)*%
X95025000Y-93135000D02*
X94050001Y-93135000D01*
X93967100Y-95400000D02*
X97500000Y-95400000D01*
X93500000Y-93685001D02*
X93500000Y-94932900D01*
X93500000Y-94932900D02*
X93967100Y-95400000D01*
X94050001Y-93135000D02*
X93500000Y-93685001D01*
%TD*%
M02*
