%TF.GenerationSoftware,KiCad,Pcbnew,9.0.6*%
%TF.CreationDate,2025-11-19T21:55:10+05:30*%
%TF.ProjectId,class d  amplifier,636c6173-7320-4642-9020-616d706c6966,rev?*%
%TF.SameCoordinates,Original*%
%TF.FileFunction,Copper,L2,Bot*%
%TF.FilePolarity,Positive*%
%FSLAX46Y46*%
G04 Gerber Fmt 4.6, Leading zero omitted, Abs format (unit mm)*
G04 Created by KiCad (PCBNEW 9.0.6) date 2025-11-19 21:55:10*
%MOMM*%
%LPD*%
G01*
G04 APERTURE LIST*
G04 Aperture macros list*
%AMRoundRect*
0 Rectangle with rounded corners*
0 $1 Rounding radius*
0 $2 $3 $4 $5 $6 $7 $8 $9 X,Y pos of 4 corners*
0 Add a 4 corners polygon primitive as box body*
4,1,4,$2,$3,$4,$5,$6,$7,$8,$9,$2,$3,0*
0 Add four circle primitives for the rounded corners*
1,1,$1+$1,$2,$3*
1,1,$1+$1,$4,$5*
1,1,$1+$1,$6,$7*
1,1,$1+$1,$8,$9*
0 Add four rect primitives between the rounded corners*
20,1,$1+$1,$2,$3,$4,$5,0*
20,1,$1+$1,$4,$5,$6,$7,0*
20,1,$1+$1,$6,$7,$8,$9,0*
20,1,$1+$1,$8,$9,$2,$3,0*%
G04 Aperture macros list end*
%TA.AperFunction,ComponentPad*%
%ADD10C,2.400000*%
%TD*%
%TA.AperFunction,ComponentPad*%
%ADD11RoundRect,0.250000X-0.550000X-0.550000X0.550000X-0.550000X0.550000X0.550000X-0.550000X0.550000X0*%
%TD*%
%TA.AperFunction,ComponentPad*%
%ADD12C,1.600000*%
%TD*%
%TA.AperFunction,ComponentPad*%
%ADD13C,3.000000*%
%TD*%
%TA.AperFunction,ComponentPad*%
%ADD14RoundRect,0.250000X1.250000X-0.750000X1.250000X0.750000X-1.250000X0.750000X-1.250000X-0.750000X0*%
%TD*%
%TA.AperFunction,ComponentPad*%
%ADD15R,1.905000X2.000000*%
%TD*%
%TA.AperFunction,ComponentPad*%
%ADD16O,1.905000X2.000000*%
%TD*%
%TA.AperFunction,ComponentPad*%
%ADD17RoundRect,0.250001X-1.149999X-1.149999X1.149999X-1.149999X1.149999X1.149999X-1.149999X1.149999X0*%
%TD*%
%TA.AperFunction,ComponentPad*%
%ADD18C,2.800000*%
%TD*%
%TA.AperFunction,ViaPad*%
%ADD19C,0.600000*%
%TD*%
%TA.AperFunction,Conductor*%
%ADD20C,0.200000*%
%TD*%
G04 APERTURE END LIST*
D10*
%TO.P,R1,1*%
%TO.N,Net-(U1-DIS)*%
X103500000Y-74910000D03*
%TO.P,R1,2*%
%TO.N,Net-(J2-Pin_1)*%
X103500000Y-67290000D03*
%TD*%
D11*
%TO.P,D1,1,K*%
%TO.N,Net-(D1-K)*%
X83000000Y-92000000D03*
D12*
%TO.P,D1,2,A*%
%TO.N,Net-(D1-A)*%
X90620000Y-92000000D03*
%TD*%
D13*
%TO.P,L1,1,1*%
%TO.N,Net-(Q1-E)*%
X114800000Y-61500000D03*
%TO.P,L1,2,2*%
%TO.N,Net-(C3-Pad1)*%
X129500000Y-61500000D03*
%TD*%
D10*
%TO.P,C2,1*%
%TO.N,Net-(J1-Pin_1)*%
X85250000Y-85000000D03*
%TO.P,C2,2*%
%TO.N,Net-(U1-CV)*%
X93000000Y-85000000D03*
%TD*%
%TO.P,C3,1*%
%TO.N,Net-(C3-Pad1)*%
X99125000Y-83000000D03*
%TO.P,C3,2*%
%TO.N,Net-(J2-Pin_2)*%
X106875000Y-83000000D03*
%TD*%
D14*
%TO.P,J1,1,Pin_1*%
%TO.N,Net-(J1-Pin_1)*%
X106717500Y-91800000D03*
%TD*%
D10*
%TO.P,C1,1*%
%TO.N,Net-(D1-K)*%
X86125000Y-68000000D03*
%TO.P,C1,2*%
%TO.N,Net-(J2-Pin_2)*%
X93875000Y-68000000D03*
%TD*%
D15*
%TO.P,Q1,1,B*%
%TO.N,Net-(Q1-B)*%
X122000000Y-77000000D03*
D16*
%TO.P,Q1,2,C*%
%TO.N,Net-(J2-Pin_1)*%
X124540000Y-77000000D03*
%TO.P,Q1,3,E*%
%TO.N,Net-(Q1-E)*%
X127080000Y-77000000D03*
%TD*%
D10*
%TO.P,R2,1*%
%TO.N,Net-(D1-A)*%
X86880000Y-76500000D03*
%TO.P,R2,2*%
%TO.N,Net-(U1-DIS)*%
X94500000Y-76500000D03*
%TD*%
D17*
%TO.P,J3,1,Pin_1*%
%TO.N,Net-(J3-Pin_1)*%
X103000000Y-57500000D03*
D18*
%TO.P,J3,2,Pin_2*%
%TO.N,Net-(J2-Pin_2)*%
X108000000Y-57500000D03*
%TD*%
D10*
%TO.P,R3,1*%
%TO.N,Net-(U1-Q)*%
X121880000Y-92500000D03*
%TO.P,R3,2*%
%TO.N,Net-(Q1-B)*%
X129500000Y-92500000D03*
%TD*%
D15*
%TO.P,Q2,1,B*%
%TO.N,Net-(Q1-B)*%
X122500000Y-85500000D03*
D16*
%TO.P,Q2,2,C*%
%TO.N,Net-(J2-Pin_2)*%
X125040000Y-85500000D03*
%TO.P,Q2,3,E*%
%TO.N,Net-(Q1-E)*%
X127580000Y-85500000D03*
%TD*%
D17*
%TO.P,J2,1,Pin_1*%
%TO.N,Net-(J2-Pin_1)*%
X88000000Y-57000000D03*
D18*
%TO.P,J2,2,Pin_2*%
%TO.N,Net-(J2-Pin_2)*%
X93000000Y-57000000D03*
%TD*%
D10*
%TO.P,C4,1*%
%TO.N,Net-(C3-Pad1)*%
X113000000Y-82750000D03*
%TO.P,C4,2*%
%TO.N,Net-(J3-Pin_1)*%
X113000000Y-75000000D03*
%TD*%
D19*
%TO.N,Net-(D1-K)*%
X93600000Y-92500000D03*
%TO.N,Net-(J2-Pin_2)*%
X120000000Y-88000000D03*
X94500000Y-88000000D03*
%TO.N,Net-(C3-Pad1)*%
X110000000Y-79500000D03*
%TO.N,Net-(J2-Pin_1)*%
X111000000Y-78500000D03*
X100500000Y-89500000D03*
%TO.N,Net-(Q1-B)*%
X122500000Y-81000000D03*
%TO.N,Net-(U1-Q)*%
X97500000Y-95400000D03*
%TD*%
D20*
%TO.N,Net-(D1-K)*%
X86000000Y-92000000D02*
X89500000Y-95500000D01*
X83000000Y-92000000D02*
X86000000Y-92000000D01*
X93500000Y-92500000D02*
X93600000Y-92500000D01*
X90500000Y-95500000D02*
X93500000Y-92500000D01*
X89500000Y-95500000D02*
X90500000Y-95500000D01*
%TO.N,Net-(J2-Pin_2)*%
X106875000Y-83000000D02*
X101875000Y-88000000D01*
X108000000Y-57500000D02*
X97500000Y-68000000D01*
X125040000Y-85500000D02*
X125040000Y-86460000D01*
X101875000Y-88000000D02*
X94500000Y-88000000D01*
X97500000Y-68000000D02*
X93875000Y-68000000D01*
X125040000Y-86460000D02*
X123500000Y-88000000D01*
X123500000Y-88000000D02*
X120000000Y-88000000D01*
%TO.N,Net-(C3-Pad1)*%
X99125000Y-83000000D02*
X102625000Y-79500000D01*
X113000000Y-82750000D02*
X113000000Y-78000000D01*
X113000000Y-78000000D02*
X129500000Y-61500000D01*
X102625000Y-79500000D02*
X110000000Y-79500000D01*
%TO.N,Net-(J2-Pin_1)*%
X111000000Y-81500000D02*
X111000000Y-78500000D01*
X100500000Y-89500000D02*
X103000000Y-89500000D01*
X103000000Y-89500000D02*
X111000000Y-81500000D01*
%TO.N,Net-(Q1-B)*%
X122000000Y-80500000D02*
X122500000Y-81000000D01*
X122000000Y-77000000D02*
X122000000Y-80500000D01*
%TO.N,Net-(U1-Q)*%
X99500000Y-97500000D02*
X97500000Y-95500000D01*
X121880000Y-92500000D02*
X111500000Y-92500000D01*
X97500000Y-95500000D02*
X97500000Y-95400000D01*
X111500000Y-92500000D02*
X106500000Y-97500000D01*
X106500000Y-97500000D02*
X99500000Y-97500000D01*
%TD*%
M02*
