M48
; DRILL file {KiCad 9.0.6} date 2025-11-19T21:55:22+0530
; FORMAT={-:-/ absolute / metric / decimal}
; #@! TF.CreationDate,2025-11-19T21:55:22+05:30
; #@! TF.GenerationSoftware,Kicad,Pcbnew,9.0.6
; #@! TF.FileFunction,Plated,1,2,PTH
FMAT,2
METRIC
; #@! TA.AperFunction,Plated,PTH,ViaDrill
T1C0.300
; #@! TA.AperFunction,Plated,PTH,ComponentDrill
T2C0.800
; #@! TA.AperFunction,Plated,PTH,ComponentDrill
T3C1.100
; #@! TA.AperFunction,Plated,PTH,ComponentDrill
T4C1.200
; #@! TA.AperFunction,Plated,PTH,ComponentDrill
T5C1.300
; #@! TA.AperFunction,Plated,PTH,ComponentDrill
T6C1.500
%
G90
G05
T1
X93.6Y-92.5
X94.5Y-88.0
X97.5Y-95.4
X100.5Y-89.5
X110.0Y-79.5
X111.0Y-78.5
X120.0Y-88.0
X122.5Y-81.0
T2
X83.0Y-92.0
X90.62Y-92.0
T3
X122.0Y-77.0
X122.5Y-85.5
X124.54Y-77.0
X125.04Y-85.5
X127.08Y-77.0
X127.58Y-85.5
T4
X85.25Y-85.0
X86.125Y-68.0
X86.88Y-76.5
X93.0Y-85.0
X93.875Y-68.0
X94.5Y-76.5
X99.125Y-83.0
X103.5Y-67.29
X103.5Y-74.91
X106.718Y-91.8
X106.875Y-83.0
X113.0Y-75.0
X113.0Y-82.75
X121.88Y-92.5
X129.5Y-92.5
T5
X88.0Y-57.0
X93.0Y-57.0
X103.0Y-57.5
X108.0Y-57.5
T6
X114.8Y-61.5
X129.5Y-61.5
M30
